<svg width="44" height="44" viewBox="0 0 44 44" fill="none" xmlns="http://www.w3.org/2000/svg">
<path d="M6.96367 33.6152C6.85321 33.6152 6.76367 33.5257 6.76367 33.4152V16.9875C6.76367 16.839 6.60751 16.7422 6.47455 16.8084L4.6778 17.7028C4.54484 17.769 4.38867 17.6723 4.38867 17.5238V15.8206C4.38867 15.748 4.42801 15.6811 4.49145 15.6459L8.09646 13.6405C8.12619 13.6239 8.15965 13.6152 8.19368 13.6152H11.4887C11.5991 13.6152 11.6887 13.7048 11.6887 13.8152V33.4152C11.6887 33.5257 11.5991 33.6152 11.4887 33.6152H6.96367Z" fill="white"/>
<path fill-rule="evenodd" clip-rule="evenodd" d="M4.38867 15.8206C4.38867 15.748 4.42801 15.6811 4.49145 15.6459L8.09646 13.6405C8.12619 13.6239 8.15965 13.6152 8.19368 13.6152H11.4887C11.5991 13.6152 11.6887 13.7048 11.6887 13.8152V33.4152C11.6887 33.5257 11.5991 33.6152 11.4887 33.6152H6.96367C6.85321 33.6152 6.76367 33.5257 6.76367 33.4152V16.9875C6.76367 16.839 6.60751 16.7422 6.47455 16.8084L4.6778 17.7028C4.54484 17.769 4.38867 17.6723 4.38867 17.5238V15.8206ZM5.26367 19.0842C4.15247 19.5681 2.88867 18.7556 2.88867 17.5238V15.8206C2.88867 15.2036 3.22303 14.635 3.76226 14.335L7.36727 12.3296C7.62002 12.189 7.90446 12.1152 8.19368 12.1152H11.4887C12.4276 12.1152 13.1887 12.8764 13.1887 13.8152V33.4152C13.1887 34.3541 12.4276 35.1152 11.4887 35.1152H6.96367C6.02478 35.1152 5.26367 34.3541 5.26367 33.4152V19.0842Z" fill="#333333"/>
<path d="M32.8875 33.6152C32.777 33.6152 32.6875 33.5257 32.6875 33.4152V16.9875C32.6875 16.839 32.5313 16.7422 32.3984 16.8084L30.6016 17.7028C30.4687 17.769 30.3125 17.6723 30.3125 17.5238V15.8206C30.3125 15.748 30.3518 15.6811 30.4153 15.6459L34.0203 13.6405C34.05 13.6239 34.0835 13.6152 34.1175 13.6152H37.4125C37.523 13.6152 37.6125 13.7048 37.6125 13.8152V33.4152C37.6125 33.5257 37.523 33.6152 37.4125 33.6152H32.8875Z" fill="white"/>
<path fill-rule="evenodd" clip-rule="evenodd" d="M30.3125 15.8206C30.3125 15.748 30.3518 15.6811 30.4153 15.6459L34.0203 13.6405C34.05 13.6239 34.0835 13.6152 34.1175 13.6152H37.4125C37.523 13.6152 37.6125 13.7048 37.6125 13.8152V33.4152C37.6125 33.5257 37.523 33.6152 37.4125 33.6152H32.8875C32.777 33.6152 32.6875 33.5257 32.6875 33.4152V16.9875C32.6875 16.839 32.5313 16.7422 32.3984 16.8084L30.6016 17.7028C30.4687 17.769 30.3125 17.6723 30.3125 17.5238V15.8206ZM31.1875 19.0842C30.0763 19.5681 28.8125 18.7556 28.8125 17.5238V15.8206C28.8125 15.2036 29.1469 14.635 29.6861 14.335L33.2911 12.3296C33.5438 12.189 33.8283 12.1152 34.1175 12.1152H37.4125C38.3514 12.1152 39.1125 12.8764 39.1125 13.8152V33.4152C39.1125 34.3541 38.3514 35.1152 37.4125 35.1152H32.8875C31.9486 35.1152 31.1875 34.3541 31.1875 33.4152V19.0842Z" fill="#333333"/>
<path d="M19.7454 26.9351L19.7454 29.7246C19.7454 30.2769 20.1931 30.7246 20.7454 30.7246H23.4822C24.0345 30.7246 24.4822 30.2769 24.4822 29.7246V26.9351H27.2717C27.824 26.9351 28.2717 26.4874 28.2717 25.9351V23.1983C28.2717 22.646 27.824 22.1983 27.2717 22.1983H24.4822V19.4088C24.4822 18.8565 24.0345 18.4088 23.4822 18.4088H20.7454C20.1931 18.4088 19.7454 18.8565 19.7454 19.4088L19.7454 22.1983H16.9559C16.4036 22.1983 15.9559 22.646 15.9559 23.1983V25.9351C15.9559 26.4874 16.4036 26.9351 16.9559 26.9351H19.7454Z" fill="#73AFFF"/>
<path fill-rule="evenodd" clip-rule="evenodd" d="M21.1454 25.5351L21.1454 29.3246H23.0822V25.5351H26.8717V23.5983H23.0822V19.8088H21.1454V23.5983H17.3559V25.5351H21.1454ZM16.9559 26.9351C16.4036 26.9351 15.9559 26.4874 15.9559 25.9351V23.1983C15.9559 22.646 16.4036 22.1983 16.9559 22.1983H19.7454L19.7454 19.4088C19.7454 18.8565 20.1931 18.4088 20.7454 18.4088H23.4822C24.0345 18.4088 24.4822 18.8565 24.4822 19.4088V22.1983H27.2717C27.824 22.1983 28.2717 22.646 28.2717 23.1983V25.9351C28.2717 26.4874 27.824 26.9351 27.2717 26.9351H24.4822V29.7246C24.4822 30.2769 24.0345 30.7246 23.4822 30.7246H20.7454C20.1931 30.7246 19.7454 30.2769 19.7454 29.7246L19.7454 26.9351H16.9559Z" fill="#333333"/>
</svg>
