<svg width="45" height="44" viewBox="0 0 45 44" fill="none" xmlns="http://www.w3.org/2000/svg">
<path d="M8.19995 15.4C8.19995 13.5774 9.67741 12.1 11.5 12.1H33.4999C35.3225 12.1 36.7999 13.5774 36.7999 15.4V28.6C36.7999 30.4225 35.3225 31.9 33.4999 31.9H11.5C9.67741 31.9 8.19995 30.4225 8.19995 28.6V15.4Z" fill="white"/>
<path fill-rule="evenodd" clip-rule="evenodd" d="M7.42993 15.4C7.42993 13.1522 9.25213 11.33 11.4999 11.33H33.4999C35.7477 11.33 37.5699 13.1522 37.5699 15.4V28.6C37.5699 30.8478 35.7477 32.67 33.4999 32.67H11.4999C9.25213 32.67 7.42993 30.8478 7.42993 28.6V15.4ZM11.4999 12.87C10.1027 12.87 8.96993 14.0027 8.96993 15.4V28.6C8.96993 29.9972 10.1027 31.13 11.4999 31.13H33.4999C34.8972 31.13 36.0299 29.9972 36.0299 28.6V15.4C36.0299 14.0027 34.8972 12.87 33.4999 12.87H11.4999Z" fill="#333333"/>
<path d="M31.3 12.1H34.05C35.5688 12.1 36.8 13.3312 36.8 14.85V29.15C36.8 30.6688 35.5688 31.9 34.05 31.9H31.3V12.1Z" fill="#73AFFF"/>
<path fill-rule="evenodd" clip-rule="evenodd" d="M30.53 11.33H34.05C35.9941 11.33 37.57 12.9059 37.57 14.85V29.15C37.57 31.094 35.9941 32.67 34.05 32.67H30.53V11.33ZM32.07 12.87V31.13H34.05C35.1436 31.13 36.03 30.2435 36.03 29.15V14.85C36.03 13.7564 35.1436 12.87 34.05 12.87H32.07Z" fill="#333333"/>
<path fill-rule="evenodd" clip-rule="evenodd" d="M16.7474 17.71C16.0369 17.71 15.4599 18.287 15.4599 18.9976C15.4599 19.7091 16.0366 20.2851 16.7474 20.2851C17.4583 20.2851 18.035 19.7091 18.035 18.9976C18.035 18.287 17.458 17.71 16.7474 17.71ZM14.1399 18.9976C14.1399 17.558 15.3079 16.39 16.7474 16.39C18.187 16.39 19.355 17.558 19.355 18.9976C19.355 20.4387 18.1867 21.6051 16.7474 21.6051C15.3082 21.6051 14.1399 20.4387 14.1399 18.9976Z" fill="#333333"/>
<path fill-rule="evenodd" clip-rule="evenodd" d="M24.6583 17.2543C24.9161 17.5121 24.9161 17.93 24.6583 18.1877L15.9372 26.9088C15.6795 27.1666 15.2616 27.1666 15.0039 26.9088C14.7461 26.6511 14.7461 26.2332 15.0039 25.9754L23.7249 17.2543C23.9827 16.9966 24.4006 16.9966 24.6583 17.2543Z" fill="#333333"/>
<path fill-rule="evenodd" clip-rule="evenodd" d="M22.7523 23.7149C22.0418 23.7149 21.4648 24.2919 21.4648 25.0024C21.4648 25.714 22.0415 26.29 22.7523 26.29C23.4631 26.29 24.0399 25.714 24.0399 25.0024C24.0399 24.2919 23.4629 23.7149 22.7523 23.7149ZM20.1448 25.0024C20.1448 23.5629 21.3128 22.3949 22.7523 22.3949C24.1919 22.3949 25.3599 23.5629 25.3599 25.0024C25.3599 26.4436 24.1916 27.61 22.7523 27.61C21.3131 27.61 20.1448 26.4436 20.1448 25.0024Z" fill="#333333"/>
</svg>
