<svg width="45" height="44" viewBox="0 0 45 44" fill="none" xmlns="http://www.w3.org/2000/svg">
<path fill-rule="evenodd" clip-rule="evenodd" d="M33.6191 33H11.3815C9.62447 33 8.19995 31.4643 8.19995 29.5702V15.5298C8.19995 13.6356 9.62447 12.1 11.3815 12.1H33.6191C35.3761 12.1 36.7999 13.6356 36.7999 15.5298V29.5702C36.7999 31.4643 35.3761 33 33.6191 33Z" fill="white"/>
<path fill-rule="evenodd" clip-rule="evenodd" d="M11.3815 12.87C10.1032 12.87 8.96993 14.0054 8.96993 15.5297V29.5702C8.96993 31.0945 10.1032 32.23 11.3815 32.23H33.6191C34.8972 32.23 36.0299 31.0948 36.0299 29.5702V15.5297C36.0299 14.0052 34.8972 12.87 33.6191 12.87H11.3815ZM7.42993 15.5297C7.42993 13.2659 9.14573 11.33 11.3815 11.33H33.6191C35.855 11.33 37.5699 13.2661 37.5699 15.5297V29.5702C37.5699 31.8338 35.855 33.77 33.6191 33.77H11.3815C9.14573 33.77 7.42993 31.834 7.42993 29.5702V15.5297Z" fill="#333333"/>
<path fill-rule="evenodd" clip-rule="evenodd" d="M8.19995 20.9H36.7999V16.5H8.19995V20.9Z" fill="#73AFFF"/>
<path fill-rule="evenodd" clip-rule="evenodd" d="M7.48486 16.4999C7.48486 16.105 7.80498 15.7849 8.19986 15.7849H36.7999C37.1947 15.7849 37.5149 16.105 37.5149 16.4999V20.8999C37.5149 21.2948 37.1947 21.6149 36.7999 21.6149H8.19986C7.80498 21.6149 7.48486 21.2948 7.48486 20.8999V16.4999ZM8.91486 17.2149V20.1849H36.0849V17.2149H8.91486Z" fill="#333333"/>
<path fill-rule="evenodd" clip-rule="evenodd" d="M11.9399 25.8499C11.9399 25.4854 12.2354 25.1899 12.5999 25.1899H13.6999C14.0644 25.1899 14.3599 25.4854 14.3599 25.8499C14.3599 26.2145 14.0644 26.5099 13.6999 26.5099H12.5999C12.2354 26.5099 11.9399 26.2145 11.9399 25.8499Z" fill="#333333"/>
<path fill-rule="evenodd" clip-rule="evenodd" d="M16.3398 25.8499C16.3398 25.4854 16.6353 25.1899 16.9998 25.1899H19.1998C19.5644 25.1899 19.8598 25.4854 19.8598 25.8499C19.8598 26.2145 19.5644 26.5099 19.1998 26.5099H16.9998C16.6353 26.5099 16.3398 26.2145 16.3398 25.8499Z" fill="#333333"/>
<path fill-rule="evenodd" clip-rule="evenodd" d="M11.9399 29.15C11.9399 28.7855 12.2354 28.49 12.5999 28.49H22.4999C22.8645 28.49 23.1599 28.7855 23.1599 29.15C23.1599 29.5145 22.8645 29.81 22.4999 29.81H12.5999C12.2354 29.81 11.9399 29.5145 11.9399 29.15Z" fill="#333333"/>
</svg>
