<svg width="41" height="40" viewBox="0 0 41 40" fill="none" xmlns="http://www.w3.org/2000/svg">
<path fill-rule="evenodd" clip-rule="evenodd" d="M26.2153 33.4726C25.9061 33.5917 25.5588 33.4375 25.4397 33.1283C25.195 32.4928 25.0839 31.6987 25.0839 30.9343C25.0839 30.1699 25.195 29.3758 25.4397 28.7403C25.4434 28.7307 25.4473 28.7213 25.4514 28.7121C25.6209 28.2572 25.7164 27.6319 25.7163 26.9781C25.7161 26.3107 25.6165 25.6731 25.44 25.2163L26.5593 24.7838C26.8048 25.4192 26.9161 26.2135 26.9163 26.9779C26.9164 27.7423 26.8053 28.5365 26.5605 29.1717C26.5568 29.1812 26.553 29.1905 26.5489 29.1996C26.3793 29.655 26.2839 30.2804 26.2839 30.9343C26.2839 31.6017 26.3833 32.2395 26.5595 32.697C26.6786 33.0062 26.5245 33.3535 26.2153 33.4726Z" fill="#333333"/>
<path fill-rule="evenodd" clip-rule="evenodd" d="M28.5 28H23.5L25.2899 25H26.7092L28.5 28Z" fill="white"/>
<path fill-rule="evenodd" clip-rule="evenodd" d="M24.7318 24.6671C24.8491 24.4705 25.0611 24.3501 25.29 24.3501H26.7093C26.9381 24.3501 27.1501 24.4704 27.2674 24.6669L29.0582 27.6669C29.1781 27.8678 29.1808 28.1176 29.0654 28.321C28.9499 28.5244 28.734 28.6501 28.5001 28.6501H23.5001C23.2662 28.6501 23.0504 28.5244 22.9349 28.3211C22.8194 28.1177 22.8221 27.8679 22.9419 27.6671L24.7318 24.6671ZM25.6591 25.6501L24.6448 27.3501H27.3551L26.3403 25.6501H25.6591Z" fill="#333333"/>
<path fill-rule="evenodd" clip-rule="evenodd" d="M33.5 17.0005C33.5 21.9703 29.9174 26 25.5005 26C21.0826 26 17.5 21.9703 17.5 17.0005C17.5 12.0297 21.0826 8 25.5005 8C29.9174 8 33.5 12.0297 33.5 17.0005" fill="white"/>
<path fill-rule="evenodd" clip-rule="evenodd" d="M25.5005 8.70005C21.5444 8.70005 18.2 12.3366 18.2 17.0005C18.2 21.6634 21.5444 25.3 25.5005 25.3C29.4557 25.3 32.8 21.6635 32.8 17.0005C32.8 12.3366 29.4557 8.70005 25.5005 8.70005ZM16.8 17.0005C16.8 11.7229 20.6208 7.30005 25.5005 7.30005C30.3793 7.30005 34.2001 11.723 34.2001 17.0005C34.2001 22.2772 30.3793 26.7001 25.5005 26.7001C20.6208 26.7001 16.8 22.2772 16.8 17.0005Z" fill="#333333"/>
<path d="M16.4807 30.801C16.2995 30.4979 16.1552 29.8622 16.1057 29.5823L17.2971 29.3127C17.2971 29.3127 17.3674 29.9143 17.5159 30.1877C17.6643 30.4612 17.9026 30.9729 17.9065 31.4651C17.9104 31.9573 17.8792 32.3088 17.7659 32.7776C17.6526 33.2463 17.3167 33.6174 16.8674 33.5862C16.6084 33.5682 16.2424 33.1838 16.4377 32.7776C16.6331 32.3713 16.6917 32.0784 16.719 31.8518C16.7463 31.6252 16.7073 31.1799 16.4807 30.801Z" fill="#333333"/>
<path fill-rule="evenodd" clip-rule="evenodd" d="M22.5 19.0004C22.5 23.418 19.3653 27 15.5004 27C11.6347 27 8.5 23.418 8.5 19.0004C8.5 14.582 11.6347 11 15.5004 11C19.3653 11 22.5 14.582 22.5 19.0004Z" fill="#73AFFF"/>
<path fill-rule="evenodd" clip-rule="evenodd" d="M15.5004 11.7C12.1062 11.7 9.20005 14.8779 9.20005 19.0005C9.20005 23.1221 12.1062 26.3 15.5004 26.3C18.8939 26.3 21.8 23.1222 21.8 19.0005C21.8 14.8779 18.8938 11.7 15.5004 11.7ZM7.80005 19.0005C7.80005 14.2861 11.1633 10.3 15.5004 10.3C19.8368 10.3 23.2 14.2862 23.2 19.0005C23.2 23.714 19.8368 27.7001 15.5004 27.7001C11.1634 27.7001 7.80005 23.714 7.80005 19.0005Z" fill="#333333"/>
<path fill-rule="evenodd" clip-rule="evenodd" d="M18.5 29H14.5L15.9319 27H17.0673L18.5 29Z" fill="white"/>
<path fill-rule="evenodd" clip-rule="evenodd" d="M15.4035 26.6217C15.5256 26.4512 15.7224 26.3501 15.932 26.3501H17.0674C17.277 26.3501 17.4738 26.4512 17.5958 26.6216L19.0285 28.6216C19.1704 28.8196 19.1896 29.0804 19.0783 29.2971C18.9669 29.5138 18.7437 29.6501 18.5001 29.6501H14.5001C14.2565 29.6501 14.0333 29.5139 13.922 29.2972C13.8106 29.0805 13.8298 28.8198 13.9716 28.6217L15.4035 26.6217ZM16.2661 27.6501L15.7649 28.3501H17.2349L16.7335 27.6501H16.2661Z" fill="#333333"/>
<path fill-rule="evenodd" clip-rule="evenodd" d="M14.554 13.8865C14.7031 14.1816 14.5854 14.5416 14.2911 14.6916L14.2891 14.6926L14.0185 14.1571C14.2891 14.6926 14.2891 14.6926 14.2891 14.6926L14.2911 14.6916L14.2799 14.6976C14.2691 14.7035 14.2509 14.7136 14.2264 14.7279C14.1772 14.7567 14.1026 14.8025 14.0104 14.8659C13.8254 14.9932 13.5725 15.1891 13.3103 15.4586C12.7868 15.9965 12.2369 16.8149 12.0955 17.9652C12.055 18.2941 11.7556 18.5279 11.4267 18.4875C11.0978 18.447 10.864 18.1476 10.9045 17.8187C11.0858 16.3438 11.7953 15.2948 12.4503 14.6217C12.7774 14.2855 13.0936 14.04 13.3304 13.8772C13.449 13.7956 13.5486 13.7341 13.6207 13.692C13.6568 13.6709 13.6861 13.6545 13.7076 13.6429L13.734 13.6288L13.7425 13.6244L13.7456 13.6228L13.7469 13.6222C13.7469 13.6222 13.7479 13.6216 14.0185 14.1571L13.7479 13.6216C14.0436 13.4722 14.4046 13.5908 14.554 13.8865Z" fill="#333333"/>
</svg>
