<svg width="45" height="44" viewBox="0 0 45 44" fill="none" xmlns="http://www.w3.org/2000/svg">
<path fill-rule="evenodd" clip-rule="evenodd" d="M17.0475 8.05942C16.8345 7.85806 16.5011 7.85906 16.2894 8.06169L7.1001 16.8552H10.7617V27.4577C10.7617 27.7614 11.008 28.0077 11.3117 28.0077H21.845C22.1488 28.0077 22.395 27.7614 22.395 27.4577V16.8552H26.3501L17.0475 8.05942Z" fill="white"/>
<path fill-rule="evenodd" clip-rule="evenodd" d="M16.6705 8.76267L9.01847 16.0852H10.7617C11.187 16.0852 11.5317 16.43 11.5317 16.8552V27.2377H21.625V16.8552C21.625 16.43 21.9698 16.0852 22.395 16.0852H24.415L16.6705 8.76267ZM15.757 7.50535C16.2652 7.01905 17.0654 7.01665 17.5765 7.4999L26.8791 16.2957C27.1083 16.5124 27.1821 16.8469 27.0655 17.1399C26.949 17.4329 26.6655 17.6252 26.3501 17.6252H23.165V27.4577C23.165 28.1867 22.574 28.7777 21.845 28.7777H11.3117C10.5827 28.7777 9.99175 28.1867 9.99175 27.4577V17.6252H7.1001C6.78558 17.6252 6.50268 17.4339 6.38552 17.142C6.26836 16.8502 6.3405 16.5164 6.56774 16.2989L15.757 7.50535Z" fill="#333333"/>
<path fill-rule="evenodd" clip-rule="evenodd" d="M27.9527 37.0406C28.1657 37.2419 28.4991 37.2409 28.7109 37.0383L37.9001 28.2447H34.2385V17.6423C34.2385 17.3385 33.9923 17.0923 33.6885 17.0923L23.1552 17.0923C22.8515 17.0923 22.6052 17.3385 22.6052 17.6423V28.2447H18.6501L27.9527 37.0406Z" fill="#73AFFF"/>
<path fill-rule="evenodd" clip-rule="evenodd" d="M28.3297 36.3373L35.9818 29.0148H34.2385C33.8132 29.0148 33.4685 28.67 33.4685 28.2448V17.8623L23.3752 17.8623V28.2448C23.3752 28.67 23.0305 29.0148 22.6052 29.0148H20.5853L28.3297 36.3373ZM29.2432 37.5946C28.735 38.0809 27.9348 38.0833 27.4237 37.6001L18.1211 28.8043C17.892 28.5876 17.8181 28.2531 17.9347 27.9601C18.0513 27.6671 18.3348 27.4748 18.6501 27.4748H21.8352L21.8352 17.6423C21.8352 16.9133 22.4262 16.3223 23.1552 16.3223L33.6885 16.3223C34.4175 16.3223 35.0085 16.9133 35.0085 17.6423V27.4748H37.9001C38.2147 27.4748 38.4976 27.666 38.6147 27.9579C38.7319 28.2498 38.6597 28.5836 38.4325 28.8011L29.2432 37.5946Z" fill="#333333"/>
<path fill-rule="evenodd" clip-rule="evenodd" d="M25.0732 23.1649C25.3644 23.0786 25.6705 23.2448 25.7567 23.5361L26.8761 27.3161L28.1297 23.6259C28.2062 23.4005 28.4192 23.2499 28.6573 23.2529C28.8953 23.2558 29.1045 23.4116 29.1754 23.6389L30.284 27.19L31.2995 23.5446C31.381 23.252 31.6843 23.0809 31.9769 23.1624C32.2695 23.2439 32.4407 23.5472 32.3592 23.8398L30.8439 29.2794C30.7785 29.5142 30.5663 29.678 30.3226 29.6817C30.0788 29.6855 29.8617 29.5284 29.7891 29.2957L28.6283 25.5777L27.3609 29.3087C27.2838 29.5356 27.0688 29.6864 26.8292 29.6817C26.5897 29.6769 26.3808 29.5177 26.3128 29.288L24.702 23.8484C24.6157 23.5571 24.7819 23.2511 25.0732 23.1649Z" fill="#333333"/>
<path fill-rule="evenodd" clip-rule="evenodd" d="M24.1294 25.8681C24.1294 25.5644 24.3756 25.3181 24.6794 25.3181H32.3794C32.6832 25.3181 32.9294 25.5644 32.9294 25.8681C32.9294 26.1719 32.6832 26.4181 32.3794 26.4181H24.6794C24.3756 26.4181 24.1294 26.1719 24.1294 25.8681Z" fill="#333333"/>
<path fill-rule="evenodd" clip-rule="evenodd" d="M18.4097 16.6918C18.6709 16.8468 18.757 17.1842 18.602 17.4455L15.3205 22.9768C15.1655 23.238 14.8281 23.3242 14.5668 23.1692C14.3056 23.0142 14.2194 22.6768 14.3744 22.4155L17.656 16.8842C17.811 16.623 18.1484 16.5368 18.4097 16.6918Z" fill="#333333"/>
<path fill-rule="evenodd" clip-rule="evenodd" d="M14.2206 18.0341C13.9275 18.0341 13.7001 18.2674 13.7001 18.5435C13.7001 18.8195 13.9275 19.0528 14.2206 19.0528C14.5145 19.0528 14.7417 18.8193 14.7417 18.5435C14.7417 18.2677 14.5145 18.0341 14.2206 18.0341ZM12.6001 18.5435C12.6001 17.6494 13.3305 16.9341 14.2206 16.9341C15.111 16.9341 15.8417 17.6492 15.8417 18.5435C15.8417 19.4377 15.111 20.1528 14.2206 20.1528C13.3305 20.1528 12.6001 19.4375 12.6001 18.5435Z" fill="#333333"/>
<path fill-rule="evenodd" clip-rule="evenodd" d="M18.6212 20.9785C18.3276 20.9785 18.1 21.2124 18.1 21.4879C18.1 21.7635 18.3276 21.9973 18.6212 21.9973C18.9147 21.9973 19.1423 21.7635 19.1423 21.4879C19.1423 21.2124 18.9147 20.9785 18.6212 20.9785ZM17 21.4879C17 20.5934 17.7316 19.8785 18.6212 19.8785C19.5107 19.8785 20.2423 20.5934 20.2423 21.4879C20.2423 22.3824 19.5107 23.0973 18.6212 23.0973C17.7316 23.0973 17 22.3824 17 21.4879Z" fill="#333333"/>
</svg>
