<svg width="45" height="44" viewBox="0 0 45 44" fill="none" xmlns="http://www.w3.org/2000/svg">
<path fill-rule="evenodd" clip-rule="evenodd" d="M12.7382 15.2877H9.30282C8.76171 15.2877 8.30485 15.6804 8.28985 16.2213C8.23906 18.0524 8.62053 22.0087 12.7382 22.8306V15.2877Z" fill="#73AFFF"/>
<path fill-rule="evenodd" clip-rule="evenodd" d="M7.52014 16.1999C7.54816 15.1897 8.39938 14.5177 9.30281 14.5177H13.5082V23.7694L12.5875 23.5857C10.2549 23.1201 8.943 21.7393 8.25055 20.2245C7.57614 18.7492 7.49334 17.1663 7.52014 16.1999ZM9.11488 16.1233C9.07937 16.1554 9.06092 16.1933 9.05955 16.2426C9.03556 17.1074 9.1181 18.4182 9.65114 19.5843C10.0692 20.4988 10.7658 21.3354 11.9682 21.8085V16.0577H9.30281C9.2184 16.0577 9.15388 16.0881 9.11488 16.1233Z" fill="#333333"/>
<path fill-rule="evenodd" clip-rule="evenodd" d="M32.2621 15.2877H35.6974C36.2385 15.2877 36.6954 15.6804 36.7104 16.2213C36.7612 18.0524 36.3797 22.0087 32.2621 22.8306V15.2877Z" fill="#73AFFF"/>
<path fill-rule="evenodd" clip-rule="evenodd" d="M37.4801 16.1999C37.4521 15.1897 36.6009 14.5177 35.6974 14.5177H31.4921V23.7694L32.4128 23.5857C34.7453 23.1201 36.0572 21.7393 36.7497 20.2245C37.4241 18.7492 37.5069 17.1663 37.4801 16.1999ZM35.8854 16.1233C35.9209 16.1554 35.9393 16.1933 35.9407 16.2426C35.9647 17.1074 35.8821 18.4182 35.3491 19.5843C34.931 20.4988 34.2345 21.3354 33.0321 21.8085V16.0577H35.6974C35.7818 16.0577 35.8464 16.0881 35.8854 16.1233Z" fill="#333333"/>
<path fill-rule="evenodd" clip-rule="evenodd" d="M30.612 9.90002C31.5233 9.90002 32.262 10.6388 32.262 11.55V22.8306C32.262 27.413 27.8326 31.451 22.4192 31.451C17.0044 31.451 12.575 27.413 12.575 22.8306V11.55C12.575 10.6388 13.3137 9.90002 14.225 9.90002H30.612Z" fill="white"/>
<path fill-rule="evenodd" clip-rule="evenodd" d="M14.2249 10.67C13.7389 10.67 13.3449 11.064 13.3449 11.55V22.8306C13.3449 26.9035 17.3401 30.681 22.4191 30.681C27.4968 30.681 31.492 26.9035 31.492 22.8306V11.55C31.492 11.064 31.098 10.67 30.612 10.67H14.2249ZM11.8049 11.55C11.8049 10.2135 12.8884 9.13 14.2249 9.13H30.612C31.9485 9.13 33.032 10.2135 33.032 11.55V22.8306C33.032 27.9225 28.1684 32.221 22.4191 32.221C16.6686 32.221 11.8049 27.9226 11.8049 22.8306V11.55Z" fill="#333333"/>
<path fill-rule="evenodd" clip-rule="evenodd" d="M22.4185 30.791C22.7831 30.791 23.0785 31.0865 23.0785 31.451V35.7612C23.0785 36.1257 22.7831 36.4212 22.4185 36.4212C22.054 36.4212 21.7585 36.1257 21.7585 35.7612V31.451C21.7585 31.0865 22.054 30.791 22.4185 30.791Z" fill="#333333"/>
<path fill-rule="evenodd" clip-rule="evenodd" d="M15.1963 35.7612C15.1963 35.3967 15.4918 35.1012 15.8563 35.1012H28.981C29.3455 35.1012 29.641 35.3967 29.641 35.7612C29.641 36.1257 29.3455 36.4212 28.981 36.4212H15.8563C15.4918 36.4212 15.1963 36.1257 15.1963 35.7612Z" fill="#333333"/>
<path d="M24.5082 22.9324V22.1176H22.9084V15.2877H22.1466C21.7113 15.545 21.1998 15.7273 20.4924 15.8453V16.4779H21.9072V22.1176H20.1333V22.9324H24.5082Z" fill="#333333"/>
<path fill-rule="evenodd" clip-rule="evenodd" d="M22.0347 15.0984C22.0686 15.0783 22.1073 15.0677 22.1467 15.0677H22.9085C23.03 15.0677 23.1285 15.1662 23.1285 15.2877V21.8976H24.5082C24.6297 21.8976 24.7282 21.9961 24.7282 22.1176V22.9325C24.7282 23.054 24.6297 23.1525 24.5082 23.1525H20.1333C20.0118 23.1525 19.9133 23.054 19.9133 22.9325V22.1176C19.9133 21.9961 20.0118 21.8976 20.1333 21.8976H21.6872V16.6979H20.4925C20.371 16.6979 20.2725 16.5994 20.2725 16.4779V15.8453C20.2725 15.7377 20.3502 15.646 20.4563 15.6283C21.1432 15.5137 21.6277 15.339 22.0347 15.0984ZM22.2059 15.5077C21.7946 15.7423 21.3224 15.9127 20.7125 16.0294V16.2579H21.9072C22.0287 16.2579 22.1272 16.3564 22.1272 16.4779V22.1176C22.1272 22.2391 22.0287 22.3376 21.9072 22.3376H20.3533V22.7125H24.2882V22.3376H22.9085C22.7869 22.3376 22.6885 22.2391 22.6885 22.1176V15.5077H22.2059Z" fill="#333333"/>
</svg>
