<svg width="45" height="44" viewBox="0 0 45 44" fill="none" xmlns="http://www.w3.org/2000/svg">
<path fill-rule="evenodd" clip-rule="evenodd" d="M22.073 28.4671C22.3316 28.2947 22.6686 28.2947 22.9272 28.4671L32.0657 34.5594C32.4195 34.7953 32.5151 35.2734 32.2792 35.6272C32.0433 35.981 31.5653 36.0766 31.2114 35.8408L22.5001 30.0332L13.7888 35.8408C13.4349 36.0766 12.9568 35.981 12.721 35.6272C12.4851 35.2734 12.5807 34.7953 12.9345 34.5594L22.073 28.4671Z" fill="#333333"/>
<path fill-rule="evenodd" clip-rule="evenodd" d="M19.4539 10.5422L11.0421 18.9539C8.71937 16.631 8.71937 12.8651 11.0421 10.5422C13.3648 8.21933 17.1312 8.21933 19.4539 10.5422Z" fill="#73AFFF"/>
<path fill-rule="evenodd" clip-rule="evenodd" d="M19.4537 10.542C19.1051 10.1935 18.7242 9.89728 18.3204 9.65337C16.0333 8.27164 13.0162 8.56792 11.0421 10.5422C9.06794 12.5165 8.77168 15.5332 10.1533 17.8204C10.3973 18.2242 10.6935 18.6053 11.0421 18.9539L19.4537 10.542C19.4536 10.5419 19.4537 10.542 19.4537 10.542ZM17.2683 10.7055C15.5764 9.85973 13.4642 10.1423 12.0533 11.5533C10.6424 12.9644 10.3598 15.0764 11.2055 16.7682L17.2683 10.7055Z" fill="#333333"/>
<path fill-rule="evenodd" clip-rule="evenodd" d="M25.5461 10.5422L33.958 18.9539C36.2807 16.631 36.2807 12.8651 33.958 10.5422C31.6352 8.21933 27.8689 8.21933 25.5461 10.5422Z" fill="#73AFFF"/>
<path fill-rule="evenodd" clip-rule="evenodd" d="M33.958 18.9539C34.3065 18.6053 34.6028 18.2242 34.8468 17.8204C36.2284 15.5332 35.9321 12.5165 33.958 10.5422C31.9838 8.56792 28.9668 8.27164 26.6797 9.65337C26.2759 9.89728 25.8949 10.1935 25.5464 10.542C25.5465 10.5419 25.5463 10.542 25.5464 10.542L33.958 18.9539ZM33.7946 16.7682C34.6403 15.0764 34.3577 12.9644 32.9468 11.5533C31.5359 10.1423 29.4236 9.85973 27.7318 10.7055L33.7946 16.7682Z" fill="#333333"/>
<path fill-rule="evenodd" clip-rule="evenodd" d="M34.6847 22C34.6847 28.7298 29.2296 34.1847 22.4996 34.1847C15.7705 34.1847 10.3154 28.7298 10.3154 22C10.3154 15.2711 15.7705 9.81543 22.4996 9.81543C29.2296 9.81543 34.6847 15.2711 34.6847 22Z" fill="white"/>
<path fill-rule="evenodd" clip-rule="evenodd" d="M22.4996 32.6447C28.3792 32.6447 33.1447 27.8792 33.1447 22C33.1447 16.1216 28.3791 11.3554 22.4996 11.3554C16.6211 11.3554 11.8554 16.1215 11.8554 22C11.8554 27.8793 16.621 32.6447 22.4996 32.6447ZM22.4996 34.1847C29.2296 34.1847 34.6847 28.7298 34.6847 22C34.6847 15.2711 29.2296 9.81543 22.4996 9.81543C15.7705 9.81543 10.3154 15.2711 10.3154 22C10.3154 28.7298 15.7705 34.1847 22.4996 34.1847Z" fill="#333333"/>
<path fill-rule="evenodd" clip-rule="evenodd" d="M22.5 16.2378C22.9253 16.2378 23.27 16.5825 23.27 17.0078V23.1001C23.27 23.5254 22.9253 23.8701 22.5 23.8701H17.4231C16.9978 23.8701 16.6531 23.5254 16.6531 23.1001C16.6531 22.6748 16.9978 22.3301 17.4231 22.3301H21.73V17.0078C21.73 16.5825 22.0747 16.2378 22.5 16.2378Z" fill="#333333"/>
</svg>
