<svg width="45" height="44" viewBox="0 0 45 44" fill="none" xmlns="http://www.w3.org/2000/svg">
<path fill-rule="evenodd" clip-rule="evenodd" d="M26.3126 29.7588C26.588 30.0418 26.5817 30.4945 26.2987 30.7699L22.4487 34.5153C22.1656 34.7906 21.713 34.7844 21.4376 34.5014C21.1623 34.2183 21.1685 33.7656 21.4515 33.4903L25.3015 29.7449C25.5846 29.4695 26.0372 29.4757 26.3126 29.7588Z" fill="#333333"/>
<path fill-rule="evenodd" clip-rule="evenodd" d="M12.0126 16.9174C12.2879 17.2004 12.2817 17.6531 11.9986 17.9284L8.14863 21.6738C7.86559 21.9492 7.41292 21.943 7.13757 21.6599C6.86221 21.3769 6.86844 20.9242 7.15149 20.6489L11.0015 16.9034C11.2845 16.6281 11.7372 16.6343 12.0126 16.9174Z" fill="#333333"/>
<path fill-rule="evenodd" clip-rule="evenodd" d="M28.5125 31.899C28.7879 32.1821 28.7816 32.6348 28.4986 32.9101L26.8486 34.5153C26.5655 34.7907 26.1129 34.7844 25.8375 34.5014C25.5622 34.2183 25.5684 33.7657 25.8514 33.4903L27.5014 31.8851C27.7845 31.6098 28.2371 31.616 28.5125 31.899Z" fill="#333333"/>
<path fill-rule="evenodd" clip-rule="evenodd" d="M14.2125 19.0576C14.4878 19.3407 14.4816 19.7933 14.1985 20.0687L12.5485 21.6739C12.2655 21.9492 11.8128 21.943 11.5375 21.6599C11.2621 21.3769 11.2683 20.9242 11.5514 20.6489L13.2014 19.0437C13.4844 18.7683 13.9371 18.7746 14.2125 19.0576Z" fill="#333333"/>
<path fill-rule="evenodd" clip-rule="evenodd" d="M19.3505 10.8862C19.904 10.3537 20.7948 10.3537 21.3482 10.8862V10.8862C21.9103 11.4271 21.9103 12.3103 21.3482 12.8511L20.6749 13.499C20.1215 14.0315 19.2307 14.0315 18.6772 13.499V13.499C18.1152 12.9581 18.1152 12.0749 18.6772 11.5341L19.3505 10.8862Z" fill="white"/>
<path fill-rule="evenodd" clip-rule="evenodd" d="M20.8386 12.3498C21.1138 12.0849 21.1138 11.6523 20.8386 11.3875C20.5675 11.1267 20.1312 11.1267 19.8602 11.3875L19.1869 12.0353C18.9116 12.3002 18.9116 12.7328 19.1869 12.9976C19.4579 13.2584 19.8942 13.2584 20.1653 12.9976L20.8386 12.3498ZM21.8579 10.3849C22.7068 11.2017 22.7068 12.5356 21.8579 13.3524L21.1846 14.0002C20.3488 14.8044 19.0034 14.8044 18.1676 14.0002C17.3187 13.1834 17.3187 11.8495 18.1676 11.0327L18.8409 10.3849C19.6767 9.58066 21.0221 9.58066 21.8579 10.3849Z" fill="#333333"/>
<path fill-rule="evenodd" clip-rule="evenodd" d="M32.6814 23.2778C33.2348 22.7453 34.1256 22.7453 34.679 23.2778V23.2778C35.2411 23.8187 35.2411 24.7019 34.679 25.2427L34.0057 25.8906C33.4523 26.4231 32.5615 26.4231 32.0081 25.8906V25.8906C31.446 25.3497 31.446 24.4665 32.0081 23.9257L32.6814 23.2778Z" fill="white"/>
<path fill-rule="evenodd" clip-rule="evenodd" d="M34.1694 24.7415C34.4447 24.4766 34.4447 24.0441 34.1694 23.7792C33.8983 23.5184 33.4621 23.5184 33.191 23.7792L32.5177 24.427C32.2424 24.6919 32.2424 25.1245 32.5177 25.3894C32.7887 25.6501 33.225 25.6501 33.4961 25.3894L34.1694 24.7415ZM35.1887 22.7766C36.0376 23.5934 36.0376 24.9273 35.1887 25.7441L34.5154 26.392C33.6796 27.1962 32.3342 27.1962 31.4984 26.392C30.6495 25.5752 30.6495 24.2412 31.4984 23.4244L32.1717 22.7766C33.0075 21.9724 34.3529 21.9724 35.1887 22.7766Z" fill="#333333"/>
<path fill-rule="evenodd" clip-rule="evenodd" d="M10.5712 10.3442L26.0506 14.8877L20.4318 21.1644L9.271 11.4532L10.5712 10.3442Z" fill="#73AFFF"/>
<path fill-rule="evenodd" clip-rule="evenodd" d="M10.0716 9.75837C10.2693 9.58973 10.5387 9.53221 10.7881 9.6054L26.2674 14.1488C26.521 14.2232 26.7187 14.4225 26.7911 14.6766C26.8635 14.9308 26.8005 15.2043 26.6243 15.4012L21.0055 21.678C20.7247 21.9917 20.244 22.0216 19.9263 21.7453L8.76554 12.0341C8.59647 11.887 8.49988 11.6735 8.50099 11.4494C8.50209 11.2253 8.60079 11.0128 8.77131 10.8673L10.0716 9.75837ZM10.754 11.2004L10.4507 11.459L20.3644 20.0851L24.6632 15.2829L10.754 11.2004Z" fill="#333333"/>
<path fill-rule="evenodd" clip-rule="evenodd" d="M35.1453 33.0732L30.4233 18.1791L23.9 23.5855L33.9927 34.3243L35.1453 33.0732Z" fill="#73AFFF"/>
<path fill-rule="evenodd" clip-rule="evenodd" d="M35.7116 33.595C35.8988 33.3918 35.9628 33.1039 35.8793 32.8406L31.1573 17.9464C31.0799 17.7023 30.8862 17.5126 30.6405 17.4404C30.3947 17.3682 30.1292 17.4229 29.932 17.5863L23.4086 22.9926C23.245 23.1283 23.1447 23.3255 23.1315 23.5377C23.1183 23.7498 23.1933 23.958 23.3389 24.1128L33.4316 34.8517C33.5781 35.0075 33.7827 35.0954 33.9966 35.0944C34.2104 35.0933 34.4142 35.0033 34.559 34.8461L35.7116 33.595ZM34.2763 32.8801L33.9871 33.194L25.0224 23.6554L30.0347 19.5013L34.2763 32.8801Z" fill="#333333"/>
<path fill-rule="evenodd" clip-rule="evenodd" d="M13.5876 28.7039C13.5876 28.7039 28.0364 9.92505 33.0518 9.92505C37.7747 10.3973 30.4353 18.5447 30.4353 18.5447L15.7676 30.7031L16.969 34.0736L15.7676 35.2L8.83496 28.7039L10.407 27.4496L13.5876 28.7039Z" fill="white"/>
<path fill-rule="evenodd" clip-rule="evenodd" d="M14.198 29.1735C14.1979 29.1736 14.1979 29.1736 13.5876 28.704L14.198 29.1735C13.9886 29.4455 13.6244 29.5463 13.3051 29.4204L10.539 28.3294L10.0109 28.7508L15.7675 34.1447L16.0743 33.8571L15.0423 30.9617C14.9337 30.657 15.0271 30.3169 15.2762 30.1104L29.8989 17.9893L29.9385 17.9445C29.9889 17.8872 30.0632 17.8021 30.1564 17.6931C30.3431 17.475 30.6055 17.1619 30.906 16.7846C31.51 16.0264 32.2557 15.024 32.8525 14.0189C33.4702 12.9787 33.848 12.0651 33.8657 11.449C33.8737 11.17 33.8058 11.0348 33.7336 10.9578C33.656 10.875 33.4673 10.747 33.0156 10.6957C32.599 10.7072 31.9832 10.9161 31.1651 11.3962C30.3444 11.8777 29.4071 12.5796 28.3949 13.4447C26.3722 15.1735 24.1216 17.4926 22.0104 19.8306C19.9025 22.165 17.9487 24.5016 16.5208 26.2559C15.8072 27.1327 15.2257 27.8631 14.8229 28.3739C14.6215 28.6293 14.4649 28.8297 14.3587 28.9661C14.3057 29.0343 14.2653 29.0864 14.2382 29.1214L14.2077 29.1608L14.198 29.1735ZM30.4353 18.5448C31.0074 19.0601 31.0075 19.06 31.0077 19.0598L31.0095 19.0579L31.0141 19.0526L31.0312 19.0335C31.046 19.017 31.0673 18.9929 31.0947 18.9618C31.1494 18.8996 31.2283 18.8092 31.3264 18.6945C31.5227 18.4651 31.7968 18.138 32.1106 17.7441C32.7351 16.96 33.529 15.8959 34.1767 14.8052C34.8035 13.7495 35.375 12.5377 35.4051 11.4934C35.4209 10.9421 35.2874 10.3634 34.8569 9.90438C34.4343 9.45367 33.8281 9.22894 33.1283 9.15897C33.1029 9.15643 33.0773 9.15515 33.0517 9.15515C32.2147 9.15515 31.2938 9.53508 30.3857 10.0679C29.4563 10.6134 28.442 11.3786 27.3943 12.274C25.2974 14.0663 22.9954 16.4419 20.8674 18.7986C18.7362 21.1589 16.7644 23.517 15.3264 25.2838C14.6071 26.1675 14.0206 26.9042 13.6136 27.4204C13.508 27.5543 13.4145 27.6733 13.3339 27.7763L10.6895 26.7334C10.4331 26.6323 10.1422 26.6759 9.92674 26.8478L8.35469 28.1022C8.17995 28.2416 8.07443 28.4501 8.06555 28.6735C8.05667 28.8969 8.14532 29.1131 8.30845 29.2659L15.2411 35.762C15.5373 36.0395 15.9981 36.0394 16.2943 35.7618L17.4956 34.6355C17.7191 34.4259 17.7971 34.1038 17.6943 33.8152L16.6738 30.9522L30.9267 19.1376C30.9554 19.1138 30.9827 19.0876 31.0077 19.0598L30.4353 18.5448Z" fill="#333333"/>
</svg>
