<svg width="14" height="14" viewBox="0 0 14 14" fill="none" xmlns="http://www.w3.org/2000/svg">
<path fill-rule="evenodd" clip-rule="evenodd" d="M13.4327 5.03837H9.34177C9.09712 5.0397 8.87916 4.88642 8.80096 4.65807L7.54081 0.880752C7.46169 0.653011 7.24436 0.5 7 0.5C6.75565 0.5 6.53831 0.653011 6.4592 0.880752L5.19904 4.65807C5.12084 4.88642 4.90288 5.0397 4.65824 5.03837H0.567264C0.324195 5.033 0.105896 5.18416 0.0287264 5.41128C-0.0484429 5.63839 0.0335004 5.88854 0.230878 6.02839L3.55075 8.37803C3.7469 8.51525 3.82972 8.76216 3.75517 8.98749L2.48984 12.7816C2.43546 12.9509 2.46705 13.1356 2.57474 13.2779C2.68242 13.4202 2.85304 13.5029 3.03323 13.4999C3.15339 13.4994 3.27027 13.4613 3.36703 13.3911L6.66361 11.0583C6.8648 10.9166 7.1352 10.9166 7.33639 11.0583L10.633 13.3911C10.7297 13.4613 10.8466 13.4994 10.9668 13.4999C11.147 13.5029 11.3176 13.4202 11.4253 13.2779C11.5329 13.1356 11.5645 12.9509 11.5102 12.7816L10.2448 8.98749C10.1703 8.76216 10.2531 8.51525 10.4493 8.37803L13.7691 6.02839C13.9665 5.88854 14.0484 5.63839 13.9713 5.41128C13.8941 5.18416 13.6758 5.033 13.4327 5.03837Z" fill="#FDBA39"/>
</svg>
