<svg width="68" height="31" viewBox="0 0 68 31" fill="none" xmlns="http://www.w3.org/2000/svg">
<path d="M51.9453 17.0449H36.5173V18.9829H43.0153V23.9229H45.3713V18.9829H51.9453V17.0449ZM38.4553 15.7909H50.3113V13.9289H40.7733V12.6369H49.7793V10.8129H40.7733V9.55894H50.1213V7.69694H38.4553V15.7909Z" fill="black"/>
<path d="M57.8022 8.22894C55.2182 8.22894 53.3942 10.5469 53.3942 14.2329C53.3942 17.9379 55.2182 20.2749 57.8022 20.2749C60.1392 20.2749 61.8872 18.2609 62.1342 15.0309H65.0602V23.9609H67.3782V7.01294H65.0602V13.1309H62.1152C61.7732 10.0909 60.0632 8.22894 57.8022 8.22894ZM55.6742 14.2329C55.6552 11.7249 56.5292 10.3569 57.8022 10.3569C59.0752 10.3569 59.9112 11.7249 59.9302 14.2329C59.9112 16.7599 59.0752 18.1089 57.8022 18.1089C56.5292 18.1089 55.6552 16.7599 55.6742 14.2329Z" fill="black"/>
<path d="M0.493164 15.2131C0.493164 4.41326 4.69329 0.213135 15.4932 0.213135C26.293 0.213135 30.4932 4.41326 30.4932 15.2131C30.4932 26.013 26.293 30.2131 15.4932 30.2131C4.69329 30.2131 0.493164 26.013 0.493164 15.2131Z" fill="#1769FF"/>
<path d="M20.0873 23.2718H19.8138C19.7197 23.2718 19.6405 23.2035 19.6273 23.1116C19.462 21.9308 18.8235 20.4726 17.3671 18.9838C17.2739 18.8892 17.2563 18.7431 17.3284 18.6328C18.6019 16.6721 19.7812 13.7286 19.1401 11.7679C18.9756 11.2638 18.7048 10.8506 18.3389 10.5382C18.265 10.4752 18.2774 10.3605 18.3635 10.3159C19.2782 9.83182 19.8841 8.84275 19.8032 7.72415C19.7073 6.38759 18.6124 5.30662 17.2695 5.21909C15.6856 5.11581 14.3638 6.36921 14.3638 7.92283C14.3638 8.72197 14.7129 9.44145 15.2679 9.93686C15.3391 10.0008 15.325 10.1137 15.2397 10.1574C15.1166 10.2213 14.997 10.2948 14.8809 10.3789C13.5486 11.3478 13.1238 13.3802 13.0842 14.4279C13.0666 14.8953 13.0992 15.354 13.1836 15.8047C13.3507 16.708 13.7218 17.5816 14.304 18.4358C14.4799 18.694 14.6769 18.9391 14.8897 19.1693L15.9706 20.3439C17.0646 21.5615 17.6529 22.758 17.7383 23.8556C17.7418 23.8958 17.7462 23.937 17.7479 23.9772C17.7796 24.6705 18.3495 25.2131 19.0478 25.2131H20.1207C20.6651 25.2131 21.1057 24.7694 21.096 24.2241C21.0863 23.6893 20.6255 23.2709 20.0881 23.2709L20.0873 23.2718ZM17.0866 7.15434C17.5131 7.15434 17.8596 7.4992 17.8596 7.92371C17.8596 8.34822 17.5131 8.69308 17.0866 8.69308C16.66 8.69308 16.3144 8.34822 16.3144 7.92371C16.3144 7.4992 16.66 7.15434 17.0866 7.15434ZM15.7129 17.0301C15.2195 16.2039 14.9996 15.3759 15.0331 14.5041C15.0682 13.5982 15.4605 12.364 16.0312 11.9483C16.1315 11.8756 16.2573 11.8082 16.4499 11.8082C16.5343 11.8082 16.6319 11.8213 16.7454 11.8528C17.0338 11.9334 17.1904 12.083 17.2845 12.3701C17.5729 13.2515 17.0945 15.2148 16.0409 17.0258C15.9679 17.1509 15.7868 17.1544 15.7129 17.0301Z" fill="white"/>
<path d="M13.5547 19.9572C13.5257 19.9169 13.4703 19.9081 13.428 19.9344C11.8415 20.9278 10.6639 20.351 10.1583 20.1891C9.51802 19.9834 8.83381 20.2915 8.56733 20.9068L8.07308 22.0429C7.85938 22.5349 8.08627 23.1064 8.58053 23.3191C9.07478 23.5318 9.64906 23.306 9.86276 22.8149L10.0756 22.3248C10.1108 22.2434 10.1987 22.197 10.2858 22.2145C11.327 22.4202 12.8467 22.6775 14.6531 21.4626C14.7006 21.4302 14.7085 21.3637 14.6698 21.3217C14.4992 21.1335 14.3295 20.9383 14.1615 20.7362C13.9469 20.4779 13.7446 20.2171 13.5547 19.958V19.9572Z" fill="white"/>
</svg>
