<svg width="41" height="40" viewBox="0 0 41 40" fill="none" xmlns="http://www.w3.org/2000/svg">
<path fill-rule="evenodd" clip-rule="evenodd" d="M13.2365 22.1025C13.4516 20.6286 14.7155 19.5358 16.205 19.5358H25.795C27.2845 19.5358 28.5484 20.6286 28.7635 22.1025L29.9989 30.5668C30.2631 32.3769 28.8597 34.0001 27.0304 34.0001H14.9696C13.1403 34.0001 11.7369 32.3769 12.0011 30.5668L13.2365 22.1025Z" fill="white"/>
<path fill-rule="evenodd" clip-rule="evenodd" d="M25.795 20.9358H16.205C15.4106 20.9358 14.7365 21.5186 14.6218 22.3047L13.3864 30.769C13.2455 31.7344 13.994 32.6001 14.9696 32.6001H27.0304C28.006 32.6001 28.7545 31.7344 28.6136 30.769L27.3782 22.3047C27.2635 21.5186 26.5894 20.9358 25.795 20.9358ZM16.205 19.5358C14.7155 19.5358 13.4516 20.6286 13.2365 22.1025L12.0011 30.5668C11.7369 32.3769 13.1403 34.0001 14.9696 34.0001H27.0304C28.8597 34.0001 30.2631 32.3769 29.9989 30.5668L28.7635 22.1025C28.5484 20.6286 27.2845 19.5358 25.795 19.5358H16.205Z" fill="#333333"/>
<path d="M15.3 15.5928C15.3 12.4448 17.852 9.89282 21 9.89282C24.148 9.89282 26.7 12.4448 26.7 15.5928V17.6928C26.7 20.8408 24.148 23.3928 21 23.3928C17.852 23.3928 15.3 20.8408 15.3 17.6928V15.5928Z" fill="white"/>
<path fill-rule="evenodd" clip-rule="evenodd" d="M14.6 15.5929C14.6 12.0582 17.4654 9.19287 21 9.19287C24.5346 9.19287 27.4 12.0582 27.4 15.5929V17.6929C27.4 21.2275 24.5346 24.0929 21 24.0929C17.4654 24.0929 14.6 21.2275 14.6 17.6929V15.5929ZM21 10.5929C18.2386 10.5929 16 12.8314 16 15.5929V17.6929C16 20.4543 18.2386 22.6929 21 22.6929C23.7614 22.6929 26 20.4543 26 17.6929V15.5929C26 12.8314 23.7614 10.5929 21 10.5929Z" fill="#333333"/>
<path d="M19.1 14.6858C19.1 13.6364 19.9506 12.7858 21 12.7858C22.0493 12.7858 22.9 13.6364 22.9 14.6858V17.6358C22.9 18.6851 22.0493 19.5358 21 19.5358C19.9506 19.5358 19.1 18.6851 19.1 17.6358V14.6858Z" fill="white"/>
<path fill-rule="evenodd" clip-rule="evenodd" d="M18.45 14.6857C18.45 13.2774 19.5917 12.1357 21 12.1357C22.4083 12.1357 23.55 13.2774 23.55 14.6857V17.6357C23.55 19.0441 22.4083 20.1857 21 20.1857C19.5917 20.1857 18.45 19.0441 18.45 17.6357V14.6857ZM21 13.4357C20.3097 13.4357 19.75 13.9954 19.75 14.6857V17.6357C19.75 18.3261 20.3097 18.8857 21 18.8857C21.6904 18.8857 22.25 18.3261 22.25 17.6357V14.6857C22.25 13.9954 21.6904 13.4357 21 13.4357Z" fill="#333333"/>
<path d="M26.7 10.8571C26.7 12.9874 24.148 14.7143 21 14.7143C17.852 14.7143 15.3 12.9874 15.3 10.8571C15.3 8.7269 17.852 7 21 7C24.148 7 26.7 8.7269 26.7 10.8571Z" fill="white"/>
<path fill-rule="evenodd" clip-rule="evenodd" d="M24.2459 12.4251C25.0244 11.8983 25.3 11.3183 25.3 10.8571C25.3 10.396 25.0244 9.81602 24.2459 9.28921C23.4753 8.76778 22.3319 8.4 21 8.4C19.6681 8.4 18.5246 8.76778 17.7541 9.28921C16.9756 9.81602 16.7 10.396 16.7 10.8571C16.7 11.3183 16.9756 11.8983 17.7541 12.4251C18.5246 12.9465 19.6681 13.3143 21 13.3143C22.3319 13.3143 23.4753 12.9465 24.2459 12.4251ZM21 14.7143C24.148 14.7143 26.7 12.9874 26.7 10.8571C26.7 8.7269 24.148 7 21 7C17.852 7 15.3 8.7269 15.3 10.8571C15.3 12.9874 17.852 14.7143 21 14.7143Z" fill="#333333"/>
<path d="M13.4 12.7857C13.4 11.7206 14.2635 10.8572 15.3286 10.8572H26.6715C27.7366 10.8572 28.6 11.7206 28.6 12.7857C28.6 13.8509 27.7366 14.7143 26.6715 14.7143H15.3286C14.2635 14.7143 13.4 13.8509 13.4 12.7857Z" fill="#73AFFF"/>
<path fill-rule="evenodd" clip-rule="evenodd" d="M12.75 12.7857C12.75 11.3616 13.9045 10.2072 15.3286 10.2072H26.6714C28.0955 10.2072 29.25 11.3616 29.25 12.7857C29.25 14.2098 28.0955 15.3643 26.6714 15.3643H15.3286C13.9045 15.3643 12.75 14.2098 12.75 12.7857ZM15.3286 11.5072C14.6224 11.5072 14.05 12.0796 14.05 12.7857C14.05 13.4919 14.6224 14.0643 15.3286 14.0643H26.6714C27.3776 14.0643 27.95 13.4919 27.95 12.7857C27.95 12.0796 27.3776 11.5072 26.6714 11.5072H15.3286Z" fill="#333333"/>
</svg>
