<svg width="41" height="40" viewBox="0 0 41 40" fill="none" xmlns="http://www.w3.org/2000/svg">
<path fill-rule="evenodd" clip-rule="evenodd" d="M9.25501 25.5051C9.38629 25.3738 9.56434 25.3 9.74999 25.3H31.75C32.1366 25.3 32.45 25.6134 32.45 26V32C32.45 32.3866 32.1366 32.7 31.75 32.7C31.3634 32.7 31.05 32.3866 31.05 32V26.7H10.45V32C10.45 32.3866 10.1366 32.7 9.74999 32.7C9.36339 32.7 9.04999 32.3866 9.04999 32V26C9.04999 25.8144 9.12374 25.6363 9.25501 25.5051Z" fill="#333333"/>
<path d="M10.7501 12C10.7501 10.3431 12.0932 9 13.7501 9H27.7501C29.4069 9 30.7501 10.3431 30.7501 12V21H10.7501V12Z" fill="white"/>
<path fill-rule="evenodd" clip-rule="evenodd" d="M27.7501 10.4H13.7501C12.8664 10.4 12.1501 11.1163 12.1501 12V19.6H29.3501V12C29.3501 11.1163 28.6337 10.4 27.7501 10.4ZM13.7501 9C12.0932 9 10.7501 10.3431 10.7501 12V21H30.7501V12C30.7501 10.3431 29.4069 9 27.7501 9H13.7501Z" fill="#333333"/>
<path d="M12.75 16C12.75 14.8954 13.6454 14 14.75 14H18.1786C19.2831 14 20.1786 14.8954 20.1786 16V19.52H12.75V16Z" fill="white"/>
<path fill-rule="evenodd" clip-rule="evenodd" d="M18.1786 15.3H14.75C14.3634 15.3 14.05 15.6134 14.05 16V18.22H18.8786V16C18.8786 15.6134 18.5652 15.3 18.1786 15.3ZM14.75 14C13.6454 14 12.75 14.8954 12.75 16V19.52H20.1786V16C20.1786 14.8954 19.2831 14 18.1786 14H14.75Z" fill="#333333"/>
<path d="M21.1072 16C21.1072 14.8954 22.0026 14 23.1072 14H26.5357C27.6403 14 28.5357 14.8954 28.5357 16V19.52H21.1072V16Z" fill="white"/>
<path fill-rule="evenodd" clip-rule="evenodd" d="M26.5357 15.3H23.1072C22.7206 15.3 22.4072 15.6134 22.4072 16V18.22H27.2357V16C27.2357 15.6134 26.9223 15.3 26.5357 15.3ZM23.1072 14C22.0026 14 21.1072 14.8954 21.1072 16V19.52H28.5357V16C28.5357 14.8954 27.6403 14 26.5357 14H23.1072Z" fill="#333333"/>
<path d="M8.75012 21.2C8.75012 19.5431 10.0933 18.2 11.7501 18.2H29.7501C31.407 18.2 32.7501 19.5431 32.7501 21.2V26.2H8.75012V21.2Z" fill="white"/>
<path fill-rule="evenodd" clip-rule="evenodd" d="M29.7501 19.6H11.7501C10.8665 19.6 10.1501 20.3163 10.1501 21.2V24.8H31.3501V21.2C31.3501 20.3163 30.6338 19.6 29.7501 19.6ZM11.7501 18.2C10.0933 18.2 8.75012 19.5431 8.75012 21.2V26.2H32.7501V21.2C32.7501 19.5431 31.407 18.2 29.7501 18.2H11.7501Z" fill="#333333"/>
<path d="M7.75 24.64H33.75V29.64H7.75V24.64Z" fill="#73AFFF"/>
<path fill-rule="evenodd" clip-rule="evenodd" d="M32.35 26.04H9.15V28.24H32.35V26.04ZM7.75 24.64V29.64H33.75V24.64H7.75Z" fill="#333333"/>
</svg>
