<svg width="41" height="40" viewBox="0 0 41 40" fill="none" xmlns="http://www.w3.org/2000/svg">
<path d="M26.0714 17.2307H31.5C32.6046 17.2307 33.5 18.1261 33.5 19.2307V31.9999H26.0714V17.2307Z" fill="#73AFFF"/>
<path fill-rule="evenodd" clip-rule="evenodd" d="M31.5 18.6307H27.4714V30.5999H32.1V19.2307C32.1 18.8993 31.8314 18.6307 31.5 18.6307ZM26.0714 17.2307V31.9999H33.5V19.2307C33.5 18.1261 32.6046 17.2307 31.5 17.2307H26.0714Z" fill="#333333"/>
<path d="M14.9286 17.2307H9.50002C8.39545 17.2307 7.50002 18.1261 7.50002 19.2307V31.9999H14.9286V17.2307Z" fill="#73AFFF"/>
<path fill-rule="evenodd" clip-rule="evenodd" d="M9.50002 18.6307H13.5286V30.5999H8.90002V19.2307C8.90002 18.8993 9.16865 18.6307 9.50002 18.6307ZM14.9286 17.2307V31.9999H7.50002V19.2307C7.50002 18.1261 8.39545 17.2307 9.50002 17.2307H14.9286Z" fill="#333333"/>
<path fill-rule="evenodd" clip-rule="evenodd" d="M12.1429 10C12.1429 8.89543 13.0383 8 14.1429 8H26.8572C27.9617 8 28.8572 8.89543 28.8572 10V32H12.1429V10Z" fill="white"/>
<path fill-rule="evenodd" clip-rule="evenodd" d="M26.8572 9.4H14.1429C13.8115 9.4 13.5429 9.66863 13.5429 10V30.6H27.4572V10C27.4572 9.66863 27.1885 9.4 26.8572 9.4ZM14.1429 8C13.0383 8 12.1429 8.89543 12.1429 10V32H28.8572V10C28.8572 8.89543 27.9617 8 26.8572 8H14.1429Z" fill="#333333"/>
<path d="M17.7143 25.6154C17.7143 25.0631 18.162 24.6154 18.7143 24.6154H22.2857C22.838 24.6154 23.2857 25.0631 23.2857 25.6154V32H17.7143V25.6154Z" fill="#73AFFF"/>
<path fill-rule="evenodd" clip-rule="evenodd" d="M19.0143 25.9154V30.7H21.9857V25.9154H19.0143ZM18.7143 24.6154C18.162 24.6154 17.7143 25.0631 17.7143 25.6154V32H23.2857V25.6154C23.2857 25.0631 22.838 24.6154 22.2857 24.6154H18.7143Z" fill="#333333"/>
<path fill-rule="evenodd" clip-rule="evenodd" d="M17.0643 13.5384C17.0643 13.1794 17.3553 12.8884 17.7143 12.8884H23.2831C23.642 12.8884 23.9331 13.1794 23.9331 13.5384C23.9331 13.8974 23.642 14.1884 23.2831 14.1884H17.7143C17.3553 14.1884 17.0643 13.8974 17.0643 13.5384Z" fill="#333333"/>
<path fill-rule="evenodd" clip-rule="evenodd" d="M17.0643 17.2308C17.0643 16.8718 17.3553 16.5808 17.7143 16.5808H23.2857C23.6447 16.5808 23.9357 16.8718 23.9357 17.2308C23.9357 17.5898 23.6447 17.8808 23.2857 17.8808H17.7143C17.3553 17.8808 17.0643 17.5898 17.0643 17.2308Z" fill="#333333"/>
<path fill-rule="evenodd" clip-rule="evenodd" d="M17.0643 20.9231C17.0643 20.5641 17.3553 20.2731 17.7143 20.2731H23.2857C23.6447 20.2731 23.9357 20.5641 23.9357 20.9231C23.9357 21.2821 23.6447 21.5731 23.2857 21.5731H17.7143C17.3553 21.5731 17.0643 21.2821 17.0643 20.9231Z" fill="#333333"/>
</svg>
