<svg width="80" height="11" xmlns="http://www.w3.org/2000/svg" xmlns:xlink="http://www.w3.org/1999/xlink"><defs><path id="a" d="M0 10.652h79.856V0H0z"/></defs><g fill="none" fill-rule="evenodd" opacity=".3"><path d="M66.078 6.26a4.04 4.04 0 001.189-.25 2.979 2.979 0 001.492-1.207 3.043 3.043 0 00.449-1.615 3.147 3.147 0 00-.802-2.127 3.086 3.086 0 00-1.111-.773 4.026 4.026 0 00-1.54-.286h-.007L60.51 0a.062.062 0 00-.04.015.05.05 0 00-.018.036v10.532a.05.05 0 00.017.036c.011.01.026.014.041.014h1.818c.015 0 .03-.005.04-.014a.047.047 0 00.017-.036V1.612h3.365c.35 0 .683.07.89.163.26.118.445.254.603.511.157.255.235.579.235.897v.008c0 .426-.146.834-.4 1.091-.128.132-.283.238-.493.32a2.28 2.28 0 01-.835.162l-2.362-.001a.348.348 0 00-.23.07.212.212 0 00-.078.166c0 .058.024.114.065.166l4.005 5.45a.061.061 0 00.045.018H69.4a.06.06 0 00.052-.028.046.046 0 00-.008-.054l-3.366-4.29zm-16.23-2.857h-.056.056c-.001-.773-.228-1.597-.8-2.27a3.083 3.083 0 00-1.113-.826 3.796 3.796 0 00-1.538-.305h-.008L41.152 0a.06.06 0 00-.04.016.052.052 0 00-.018.038V10.59a.05.05 0 00.017.038c.01.01.026.016.041.016h1.818a.06.06 0 00.04-.016.05.05 0 00.017-.038V1.626h3.365c.349 0 .61.075.82.167.308.138.515.343.672.624.153.275.237.64.237.98v.009c0 .454-.148.89-.4 1.164-.13.14-.285.254-.495.341a2.142 2.142 0 01-.834.173H43.91c-.1 0-.184.029-.243.077a.238.238 0 00-.092.186c0 .056.022.113.063.162l.982 1.163a.06.06 0 00.045.02H46.393c.557 0 1.067-.095 1.514-.278A3.036 3.036 0 0049.4 5.126c.315-.54.448-1.138.448-1.723zm7.656 7.206c.008.02.03.034.053.034h1.996a.057.057 0 00.047-.024.05.05 0 00.005-.05L56.41 1.901c-.778-1.786-1.331-1.9-2.353-1.9h-.831a.056.056 0 00-.052.032L49.188 10.57a.052.052 0 00.005.05c.01.015.028.024.047.024h1.998a.055.055 0 00.051-.034l3.002-8.414s.205-.02.286.18l2.927 8.234zm22.336-.057l-5.03-5.59 4.972-4.87a.05.05 0 00.01-.06A.058.058 0 0079.74 0h-2.376a.057.057 0 00-.041.017l-4.464 4.63V.054a.055.055 0 00-.017-.038.063.063 0 00-.04-.016h-1.818a.06.06 0 00-.04.016.051.051 0 00-.018.038V10.59c0 .015.006.029.017.038.01.01.026.016.04.016h1.818a.06.06 0 00.041-.016.053.053 0 00.018-.038V5.275l4.522 5.352a.06.06 0 00.041.016h2.375a.057.057 0 00.053-.032.052.052 0 00-.01-.059zM21.088.002H13.37v1.12h3.211v9.522h1.235V1.121h3.27z" fill="#322F31"/><mask id="b" fill="#fff"><use xlink:href="#a"/></mask><path fill="#322F31" mask="url(#b)" d="M0 10.644h1.235V0H0zM22.616 7.612v.007c.005.947.245 1.672.745 2.188.501.517 1.3.832 2.447.832h3.835V9.601h-3.835c-.581-.001-1.069-.184-1.418-.538-.351-.352-.54-.876-.54-1.45V5.48h5.793V4.36h-5.792v-3.24h5.792V.001l-7.027.001v7.61zM34.01 5.036h2.212c.366 0 .674-.057.89-.152.227-.1.41-.254.556-.427.299-.353.453-.867.454-1.4V3.05c0-.396-.082-.798-.262-1.137-.174-.332-.378-.483-.645-.618-.244-.125-.614-.176-.974-.17h-3.376v9.51h-1.234V0l4.693.003c.496 0 .944.1 1.324.28.383.18.696.443.933.74.476.604.663 1.334.665 2.032a3.22 3.22 0 01-.37 1.532c-.255.475-.611.887-1.175 1.15-.332.154-.67.242-1.089.27l-.92.02 3.573 4.607h-1.502L33.845 5.39c-.092-.126-.052-.354.165-.354M12.178 10.65V3.035c-.002-.956-.247-1.683-.751-2.2-.506-.517-1.31-.832-2.469-.832H4.254v10.65H5.48V1.024h3.48c.594.002 1.09.188 1.446.545.357.356.55.885.549 1.465v7.617h1.224z"/></g></svg>