<svg width="17" height="16" viewBox="0 0 17 16" fill="none" xmlns="http://www.w3.org/2000/svg">
<path fill-rule="evenodd" clip-rule="evenodd" d="M15.8683 0.369979C16.3616 0.863285 16.3616 1.66309 15.8683 2.1564L10.0249 7.9998L15.8687 13.8436C16.362 14.3369 16.362 15.1367 15.8687 15.63C15.3754 16.1233 14.5756 16.1233 14.0823 15.63L8.23847 9.78622L2.39468 15.63C1.90137 16.1233 1.10157 16.1233 0.608261 15.63C0.114955 15.1367 0.114955 14.3369 0.608261 13.8436L6.45205 7.9998L0.608659 2.15641C0.115353 1.6631 0.115353 0.863295 0.608659 0.369989C1.10197 -0.123317 1.90177 -0.123317 2.39508 0.369989L8.23847 6.21338L14.0819 0.369979C14.5752 -0.123326 15.375 -0.123327 15.8683 0.369979Z" fill="black"/>
</svg>
