<svg width="32" height="32" viewBox="0 0 32 32" fill="none" xmlns="http://www.w3.org/2000/svg">
<g clip-path="url(#clip0_1844_4091)">
<path fill-rule="evenodd" clip-rule="evenodd" d="M18.4601 18.4599C20.7401 16.1799 20.7401 12.4799 18.4601 10.2099C16.1801 7.92988 12.4901 7.92988 10.2101 10.2099C7.93006 12.4899 7.93006 16.1899 10.2101 18.4599C12.4901 20.7399 16.1801 20.7399 18.4601 18.4599ZM19.5201 19.5199C22.3901 16.6499 22.3901 12.0099 19.5201 9.14988C16.6601 6.28988 12.0101 6.28988 9.15006 9.14988C6.28006 12.0199 6.28006 16.6599 9.15006 19.5199C12.0101 22.3799 16.6601 22.3799 19.5201 19.5199Z" fill="#333333"/>
<path d="M18.79 19.66L19.65 18.8L23.88 23.03C24.12 23.27 24.12 23.66 23.88 23.89C23.64 24.12 23.25 24.13 23.02 23.89L18.79 19.66Z" fill="#333333"/>
<path fill-rule="evenodd" clip-rule="evenodd" d="M18.79 19.66L23.02 23.89C23.26 24.13 23.65 24.13 23.88 23.89C24.11 23.65 24.12 23.26 23.88 23.03L19.65 18.8L18.79 19.66Z" fill="#333333"/>
</g>
<defs>
<clipPath id="clip0_1844_4091">
<rect width="17.06" height="17.06" fill="white" transform="translate(7 7)"/>
</clipPath>
</defs>
</svg>
