<svg width="40" height="40" viewBox="0 0 40 40" fill="none" xmlns="http://www.w3.org/2000/svg">
<path fill-rule="evenodd" clip-rule="evenodd" d="M25.1443 25.3617L28.5843 32.7517C28.5843 32.7517 29.0843 33.9117 27.9543 33.7517C26.8243 33.5917 24.4643 33.1217 24.4643 33.1217C24.0425 32.9735 23.6877 32.679 23.4643 32.2917L19.6943 24.2917L21.2643 23.1217L22.7843 22.7517H23.4443L24.0343 22.9217L25.1443 25.3617Z" fill="#73AFFF"/>
<path d="M28.1643 34.4518H27.8443C26.7143 34.2818 24.4243 33.8418 24.3343 33.8218C23.6968 33.6273 23.1592 33.1937 22.8343 32.6118L19.0643 24.6118C18.9948 24.4662 18.9778 24.3011 19.0161 24.1444C19.0543 23.9877 19.1456 23.849 19.2743 23.7518L20.8443 22.5818C20.9247 22.5148 21.0212 22.4699 21.1243 22.4518L22.6943 22.0618H23.4843H23.6843L24.2643 22.2318C24.3606 22.2599 24.4497 22.3084 24.5256 22.3739C24.6015 22.4395 24.6625 22.5206 24.7043 22.6118L25.8143 25.0518L29.2543 32.4418C29.3765 32.684 29.4352 32.9534 29.4247 33.2245C29.4142 33.4957 29.3349 33.7597 29.1943 33.9918C29.0747 34.1483 28.9177 34.2725 28.7378 34.3528C28.5579 34.4332 28.3607 34.4672 28.1643 34.4518ZM24.6943 32.4518C24.6943 32.4518 26.8143 32.8518 27.9343 33.0318L24.5043 25.6718L23.5043 23.5218L23.3243 23.4718H22.8343L21.5343 23.7318L20.5343 24.4718C21.3243 26.1718 23.8143 31.4718 24.0543 31.9918C24.1968 32.2105 24.4078 32.3758 24.6543 32.4618L24.6943 32.4518Z" fill="#333333"/>
<path fill-rule="evenodd" clip-rule="evenodd" d="M15.2445 25.3617L11.8045 32.7517C11.8045 32.7517 11.3045 33.9117 12.4345 33.7517C13.5645 33.5917 15.9245 33.1217 15.9245 33.1217C16.3464 32.9735 16.7012 32.679 16.9245 32.2917L20.6945 24.2917L19.1245 23.1217L17.6045 22.7517H16.9445L16.3545 22.9217L15.2445 25.3617Z" fill="#73AFFF"/>
<path d="M12.2242 34.4518C12.0344 34.4645 11.8443 34.4311 11.6702 34.3545C11.4961 34.2779 11.343 34.1603 11.2242 34.0118C11.0846 33.7814 11.0051 33.5198 10.9929 33.2507C10.9806 32.9817 11.0361 32.7138 11.1542 32.4718L15.6942 22.6318C15.736 22.5406 15.7969 22.4595 15.8729 22.3939C15.9488 22.3284 16.0379 22.2799 16.1342 22.2518L16.7142 22.0818H16.9142H17.6942L19.2242 22.3918C19.3272 22.41 19.4238 22.4548 19.5042 22.5218L21.0742 23.6918C21.2029 23.789 21.2941 23.9277 21.3324 24.0844C21.3706 24.2411 21.3536 24.4062 21.2842 24.5518C21.2842 24.5518 17.8042 32.0118 17.5142 32.5518C17.2231 33.1086 16.7345 33.5366 16.1442 33.7518C15.9542 33.8018 13.6742 34.2418 12.5442 34.4118L12.2242 34.4518ZM16.8642 23.5018L15.8642 25.6518L12.4342 33.0118C13.5742 32.8318 15.7442 32.4118 15.7642 32.4018C15.9733 32.3078 16.1505 32.1549 16.2742 31.9618C16.5142 31.4718 19.0042 26.1418 19.7942 24.4418L18.7942 23.7018L17.4942 23.4418H17.0042L16.8642 23.5018Z" fill="#333333"/>
<path fill-rule="evenodd" clip-rule="evenodd" d="M22.6041 7.75164C22.8791 8.13925 23.2656 8.43394 23.7122 8.5965C24.1588 8.75905 24.6443 8.78178 25.1041 8.66164C25.4689 8.56938 25.8505 8.56568 26.217 8.65085C26.5835 8.73602 26.9243 8.9076 27.211 9.15127C27.4978 9.39493 27.7221 9.70363 27.8652 10.0516C28.0084 10.3996 28.0663 10.7767 28.0341 11.1516C27.9936 11.6278 28.0979 12.1051 28.3335 12.5209C28.569 12.9368 28.9248 13.2716 29.3541 13.4816C29.6933 13.6471 29.9885 13.8904 30.2155 14.1919C30.4425 14.4933 30.595 14.8442 30.6603 15.2158C30.7257 15.5875 30.7021 15.9694 30.5915 16.3302C30.4809 16.6909 30.2865 17.0204 30.0241 17.2916C29.69 17.6339 29.4673 18.0692 29.3852 18.5404C29.3031 19.0116 29.3654 19.4966 29.5641 19.9316C29.7192 20.2714 29.7922 20.643 29.7771 21.0162C29.762 21.3894 29.6592 21.7539 29.4772 22.08C29.2951 22.4062 29.0388 22.6849 28.7291 22.8937C28.4193 23.1024 28.0648 23.2353 27.6941 23.2816C27.2261 23.3373 26.7855 23.5319 26.429 23.8402C26.0726 24.1485 25.8166 24.5565 25.6941 25.0116C25.5971 25.3738 25.4145 25.7073 25.1617 25.9841C24.9088 26.261 24.5932 26.473 24.2413 26.6024C23.8895 26.7318 23.5116 26.7747 23.1397 26.7276C22.7678 26.6805 22.4126 26.5447 22.1041 26.3316C21.7142 26.0589 21.2499 25.9126 20.7741 25.9126C20.2983 25.9126 19.834 26.0589 19.4441 26.3316C19.1356 26.5447 18.7804 26.6805 18.4085 26.7276C18.0366 26.7747 17.6588 26.7318 17.3069 26.6024C16.955 26.473 16.6394 26.261 16.3865 25.9841C16.1337 25.7073 15.9511 25.3738 15.8541 25.0116C15.7316 24.5565 15.4756 24.1485 15.1192 23.8402C14.7627 23.5319 14.3221 23.3373 13.8541 23.2816C13.4791 23.2424 13.1187 23.1146 12.8028 22.9089C12.4868 22.7031 12.2243 22.4252 12.0368 22.098C11.8493 21.7709 11.7422 21.4038 11.7243 21.0272C11.7065 20.6505 11.7784 20.2751 11.9341 19.9316C12.1328 19.4966 12.1952 19.0116 12.1131 18.5404C12.031 18.0692 11.8082 17.6339 11.4741 17.2916C11.2117 17.0204 11.0173 16.6909 10.9067 16.3302C10.7961 15.9694 10.7725 15.5875 10.8379 15.2158C10.9032 14.8442 11.0557 14.4933 11.2827 14.1919C11.5097 13.8904 11.8049 13.6471 12.1441 13.4816C12.5726 13.2699 12.9281 12.935 13.1651 12.5198C13.402 12.1047 13.5096 11.6283 13.4741 11.1516C13.4401 10.7772 13.4964 10.4001 13.6383 10.052C13.7802 9.70384 14.0036 9.39483 14.2897 9.15089C14.5757 8.90695 14.9161 8.73521 15.2823 8.65008C15.6485 8.56494 16.0298 8.56891 16.3941 8.66164C16.8378 8.75821 17.3 8.7236 17.7244 8.56202C18.1488 8.40043 18.517 8.11886 18.7841 7.75164C18.9989 7.44425 19.2846 7.19324 19.6172 7.01992C19.9497 6.84661 20.3191 6.7561 20.6941 6.7561C21.0691 6.7561 21.4385 6.84661 21.771 7.01992C22.1036 7.19324 22.3893 7.44425 22.6041 7.75164Z" fill="white"/>
<path d="M23.3441 27.4517C22.729 27.4523 22.1285 27.2638 21.6241 26.9117C21.3533 26.7164 21.028 26.6113 20.6941 26.6113C20.3603 26.6113 20.0349 26.7164 19.7641 26.9117C19.3664 27.1972 18.9049 27.381 18.4198 27.4471C17.9347 27.5132 17.4408 27.4596 16.9812 27.291C16.5216 27.1223 16.1103 26.8437 15.7831 26.4796C15.4559 26.1154 15.2228 25.6767 15.1041 25.2017C15.0183 24.8805 14.838 24.5925 14.5866 24.375C14.3352 24.1575 14.0243 24.0205 13.6941 23.9817C13.2111 23.9379 12.7458 23.7777 12.3383 23.5147C11.9307 23.2517 11.593 22.8938 11.3541 22.4717C11.1084 22.0466 10.9675 21.569 10.9432 21.0786C10.9188 20.5882 11.0117 20.099 11.2141 19.6517C11.3527 19.3364 11.3935 18.9867 11.3311 18.6479C11.2687 18.3091 11.106 17.9969 10.8641 17.7517C10.5289 17.4035 10.28 16.9815 10.1374 16.5197C9.99487 16.0578 9.96267 15.5689 10.0434 15.0924C10.1241 14.6158 10.3155 14.1648 10.6022 13.7757C10.8889 13.3865 11.2629 13.07 11.6941 12.8517C12.0084 12.7104 12.2723 12.477 12.4509 12.1823C12.6295 11.8876 12.7143 11.5457 12.6941 11.2017C12.6549 10.7128 12.7334 10.2215 12.923 9.76917C13.1127 9.31681 13.4079 8.91647 13.7841 8.60169C14.1532 8.28908 14.5924 8.07035 15.0643 7.96413C15.5361 7.85792 16.0267 7.86737 16.4941 7.99169C16.8173 8.07561 17.1584 8.05828 17.4714 7.94203C17.7844 7.82578 18.0541 7.61622 18.2441 7.34169C18.5178 6.92914 18.8893 6.59072 19.3255 6.35662C19.7617 6.12251 20.2491 6 20.7441 6C21.2392 6 21.7265 6.12251 22.1628 6.35662C22.599 6.59072 22.9705 6.92914 23.2441 7.34169C23.4341 7.61622 23.7039 7.82578 24.0169 7.94203C24.3298 8.05828 24.671 8.07561 24.9941 7.99169C25.4615 7.86737 25.9521 7.85792 26.424 7.96413C26.8958 8.07035 27.335 8.28908 27.7041 8.60169C28.0622 8.9265 28.3385 9.3313 28.5105 9.78311C28.6826 10.2349 28.7455 10.721 28.6941 11.2017C28.6754 11.5454 28.7608 11.8868 28.9392 12.1812C29.1176 12.4756 29.3807 12.7093 29.6941 12.8517C30.1253 13.07 30.4993 13.3865 30.786 13.7757C31.0727 14.1648 31.2641 14.6158 31.3448 15.0924C31.4256 15.5689 31.3934 16.0578 31.2508 16.5197C31.1083 16.9815 30.8594 17.4035 30.5241 17.7517C30.2896 17.9974 30.1331 18.3071 30.0744 18.6417C30.0157 18.9763 30.0573 19.3208 30.1941 19.6317C30.3965 20.079 30.4894 20.5682 30.465 21.0586C30.4407 21.549 30.2998 22.0266 30.0541 22.4517C29.8157 22.8802 29.476 23.2437 29.0645 23.5104C28.6531 23.7771 28.1826 23.9389 27.6941 23.9817C27.3604 24.0167 27.0451 24.152 26.7898 24.3698C26.5345 24.5876 26.3512 24.8776 26.2641 25.2017C26.1366 25.6738 25.8974 26.1083 25.5667 26.4685C25.236 26.8288 24.8236 27.1042 24.3641 27.2717C24.0365 27.3881 23.6918 27.4489 23.3441 27.4517ZM20.6941 25.2217C21.3127 25.219 21.9169 25.4076 22.4241 25.7617C22.6375 25.9097 22.8834 26.0042 23.1409 26.0372C23.3985 26.0703 23.6603 26.041 23.9041 25.9517C24.1504 25.8594 24.3704 25.7081 24.5447 25.5111C24.719 25.3141 24.8424 25.0774 24.9041 24.8217C25.0733 24.2273 25.4157 23.6967 25.8877 23.2978C26.3597 22.8988 26.9398 22.6495 27.5541 22.5817C27.8207 22.5598 28.0779 22.4727 28.3029 22.3279C28.5278 22.1832 28.7137 21.9853 28.8441 21.7517C28.9772 21.5174 29.0538 21.2553 29.0677 20.9862C29.0816 20.7171 29.0324 20.4484 28.9241 20.2017C28.67 19.6371 28.5913 19.0092 28.6983 18.3994C28.8053 17.7896 29.093 17.226 29.5241 16.7817C29.7103 16.5901 29.8476 16.3565 29.9242 16.1006C30.0008 15.8447 30.0145 15.574 29.9641 15.3117C29.9223 15.0499 29.8177 14.8022 29.6592 14.5897C29.5007 14.3773 29.2931 14.2064 29.0541 14.0917C28.501 13.8201 28.0417 13.3894 27.7352 12.8548C27.4287 12.3202 27.289 11.7062 27.3341 11.0917C27.35 10.8209 27.3001 10.5503 27.1886 10.303C27.0772 10.0558 26.9075 9.83913 26.6941 9.67169C26.4944 9.50477 26.2578 9.38779 26.004 9.33041C25.7501 9.27302 25.4862 9.27689 25.2341 9.34169C24.643 9.49217 24.0201 9.45889 23.4483 9.24628C22.8766 9.03368 22.3833 8.65184 22.0341 8.15169C21.8775 7.94456 21.675 7.77655 21.4425 7.66088C21.21 7.5452 20.9538 7.485 20.6941 7.485C20.4344 7.485 20.1783 7.5452 19.9458 7.66088C19.7133 7.77655 19.5108 7.94456 19.3541 8.15169C19.0023 8.6595 18.5023 9.04633 17.9224 9.25932C17.3425 9.4723 16.711 9.50107 16.1141 9.34169C15.868 9.28348 15.6118 9.28298 15.3654 9.34023C15.1191 9.39748 14.8893 9.51092 14.6941 9.67169C14.4866 9.84431 14.3237 10.0644 14.2193 10.3133C14.1148 10.5622 14.0719 10.8327 14.0941 11.1017C14.1379 11.716 13.9976 12.3295 13.6913 12.8638C13.385 13.3981 12.9264 13.8291 12.3741 14.1017C12.136 14.2201 11.9293 14.3931 11.7706 14.6065C11.612 14.8199 11.5059 15.0678 11.4611 15.3299C11.4163 15.592 11.434 15.861 11.5127 16.115C11.5914 16.369 11.7289 16.6009 11.9141 16.7917C12.3412 17.2386 12.6254 17.8026 12.7305 18.4117C12.8356 19.0209 12.7568 19.6475 12.5041 20.2117C12.3891 20.4534 12.3327 20.7189 12.3397 20.9865C12.3466 21.2541 12.4167 21.5163 12.5441 21.7517C12.6741 21.9776 12.8563 22.1691 13.0756 22.31C13.2948 22.4509 13.5446 22.5372 13.8041 22.5617C14.4184 22.6295 14.9986 22.8788 15.4706 23.2778C15.9425 23.6767 16.285 24.2073 16.4541 24.8017C16.5158 25.0574 16.6392 25.2941 16.8135 25.4911C16.9879 25.6881 17.2078 25.8394 17.4541 25.9317C17.7013 26.0275 17.9683 26.0613 18.2316 26.0299C18.4948 25.9985 18.7464 25.903 18.9641 25.7517C19.4725 25.4012 20.0767 25.2161 20.6941 25.2217Z" fill="#333333"/>
<path d="M20.6941 21.4518C19.7646 21.4518 18.8559 21.1761 18.083 20.6597C17.3101 20.1432 16.7076 19.4092 16.3519 18.5504C15.9962 17.6916 15.9031 16.7465 16.0845 15.8348C16.2658 14.9231 16.7134 14.0857 17.3707 13.4284C18.028 12.7711 18.8655 12.3234 19.7772 12.1421C20.6889 11.9607 21.6339 12.0538 22.4928 12.4095C23.3516 12.7653 24.0856 13.3677 24.602 14.1406C25.1185 14.9135 25.3941 15.8222 25.3941 16.7518C25.3915 17.9975 24.8955 19.1914 24.0146 20.0722C23.1338 20.9531 21.9398 21.4491 20.6941 21.4518ZM20.6941 13.4518C20.0415 13.4518 19.4034 13.6453 18.8608 14.0079C18.3181 14.3705 17.8951 14.8859 17.6453 15.4889C17.3956 16.0919 17.3302 16.7554 17.4576 17.3956C17.5849 18.0357 17.8992 18.6237 18.3607 19.0852C18.8222 19.5467 19.4102 19.861 20.0503 19.9884C20.6905 20.1157 21.354 20.0503 21.957 19.8006C22.56 19.5508 23.0754 19.1278 23.438 18.5851C23.8006 18.0425 23.9941 17.4044 23.9941 16.7518C23.9941 15.8765 23.6465 15.0372 23.0276 14.4183C22.4087 13.7994 21.5694 13.4518 20.6941 13.4518Z" fill="#333333"/>
</svg>
