<svg width="41" height="40" viewBox="0 0 41 40" fill="none" xmlns="http://www.w3.org/2000/svg">
<path fill-rule="evenodd" clip-rule="evenodd" d="M20.75 14.2079L17.3554 10.7356C17.3554 10.7356 15.8226 9.24188 14.4215 10.5116C13.0203 11.7812 11.75 14.2079 11.75 14.2079L12.6262 15.2535L17.0921 16L20.75 14.2079Z" fill="#73AFFF"/>
<path fill-rule="evenodd" clip-rule="evenodd" d="M17.8435 10.2338C17.8437 10.234 17.8439 10.2342 17.3554 10.7355L17.8435 10.2338L17.8559 10.2462L21.2505 13.7185C21.4076 13.8791 21.478 14.1053 21.4398 14.3266C21.4017 14.548 21.2597 14.7376 21.058 14.8364L17.4001 16.6286C17.2689 16.6929 17.1209 16.7145 16.9767 16.6904L12.5108 15.9439C12.3462 15.9164 12.1968 15.831 12.0897 15.7031L11.2135 14.6574C11.0314 14.4401 10.9983 14.1344 11.1298 13.8832L11.75 14.2078C11.1298 13.8832 11.1298 13.8833 11.1298 13.8832L11.1314 13.8802L11.1348 13.8738L11.147 13.8508C11.1575 13.831 11.1728 13.8026 11.1925 13.7664C11.2319 13.6939 11.2893 13.5902 11.3622 13.4622C11.508 13.2065 11.7171 12.8524 11.9717 12.4569C12.473 11.6782 13.1808 10.6911 13.9514 9.9928C14.9027 9.13074 15.9381 9.21445 16.6651 9.49404C17.0177 9.62962 17.307 9.81165 17.5052 9.95549C17.6056 10.0283 17.6859 10.0939 17.743 10.1429C17.7716 10.1675 17.7945 10.1881 17.8115 10.2036L17.8323 10.2231L17.8393 10.2297L17.8419 10.2322L17.8435 10.2338ZM12.5951 14.1265L12.9967 14.6057L16.9859 15.2725L19.5728 14.0051L16.8648 11.2351C16.8586 11.2294 16.8466 11.2186 16.8306 11.2048C16.7983 11.1771 16.748 11.1358 16.6828 11.0885C16.5498 10.9919 16.3684 10.8799 16.1626 10.8008C15.773 10.6509 15.3413 10.6226 14.8915 11.0302C14.2609 11.6016 13.633 12.4627 13.1489 13.2147C12.9202 13.5698 12.7304 13.89 12.5951 14.1265Z" fill="#333333"/>
<path fill-rule="evenodd" clip-rule="evenodd" d="M20.75 14.2078L24.1443 10.7353C24.1443 10.7353 25.6773 9.24183 27.0781 10.5118C28.4797 11.7811 29.75 14.2078 29.75 14.2078L28.8738 15.2529L24.407 16L20.75 14.2078Z" fill="#73AFFF"/>
<path fill-rule="evenodd" clip-rule="evenodd" d="M24.6349 11.2348L21.927 14.0051L24.5132 15.2725L28.5034 14.6051L28.9048 14.1263C28.7695 13.8898 28.5797 13.5698 28.3511 13.2147C27.8669 12.4627 27.239 11.6018 26.6083 11.0306C26.1585 10.6229 25.7267 10.6509 25.3371 10.8007C25.1313 10.8798 24.9499 10.9918 24.8168 11.0883C24.7516 11.1356 24.7013 11.1769 24.669 11.2046C24.653 11.2183 24.6411 11.2291 24.6349 11.2348ZM29.75 14.2078L30.3702 13.8832C30.5017 14.1344 30.4686 14.4402 30.2864 14.6575L29.4102 15.7026C29.3031 15.8304 29.1538 15.9158 28.9893 15.9433L24.5225 16.6904C24.3783 16.7145 24.2302 16.6929 24.099 16.6285L20.442 14.8364C20.2403 14.7376 20.0983 14.548 20.0602 14.3266C20.022 14.1053 20.0924 13.8791 20.2494 13.7185L23.6437 10.2459L23.6558 10.2339L24.1443 10.7353C23.6558 10.2339 23.6556 10.2341 23.6558 10.2339L23.6568 10.2329L23.6579 10.2319L23.6605 10.2294L23.6674 10.2227L23.6883 10.2033C23.7052 10.1877 23.7282 10.1671 23.7568 10.1426C23.8138 10.0936 23.8942 10.028 23.9946 9.95519C24.1928 9.81138 24.4822 9.62939 24.8347 9.49387C25.5617 9.21443 26.5969 9.13089 27.548 9.99289C28.3189 10.691 29.0269 11.6781 29.5282 12.4568C29.7829 12.8523 29.992 13.2064 30.1378 13.4621C30.2107 13.5902 30.2681 13.6939 30.3075 13.7664C30.3272 13.8026 30.3425 13.8311 30.353 13.8508L30.3652 13.8738L30.3686 13.8803L30.3702 13.8832C30.3702 13.8833 30.3702 13.8832 29.75 14.2078Z" fill="#333333"/>
<path fill-rule="evenodd" clip-rule="evenodd" d="M31.75 18.7824V29.2176C31.75 30.2015 30.9067 31 29.8661 31H11.6339C10.5933 31 9.75 30.2015 9.75 29.2176V18.7824C9.75 17.7978 10.5933 17 11.6339 17H29.8661C30.9067 17 31.75 17.7978 31.75 18.7824Z" fill="white"/>
<path fill-rule="evenodd" clip-rule="evenodd" d="M11.6339 17.6999C10.9428 17.6999 10.45 18.2204 10.45 18.7823V29.2175C10.45 29.779 10.943 30.2999 11.6339 30.2999H29.8661C30.557 30.2999 31.05 29.779 31.05 29.2175V18.7823C31.05 18.2204 30.5572 17.6999 29.8661 17.6999H11.6339ZM9.04999 18.7823C9.04999 17.3751 10.2437 16.2999 11.6339 16.2999H29.8661C31.2563 16.2999 32.45 17.3751 32.45 18.7823V29.2175C32.45 30.6239 31.2565 31.6999 29.8661 31.6999H11.6339C10.2435 31.6999 9.04999 30.6239 9.04999 29.2175V18.7823Z" fill="#333333"/>
<path fill-rule="evenodd" clip-rule="evenodd" d="M32.75 16.3317V17.6674C32.75 18.9563 31.9158 20 30.888 20H10.612C9.58347 20 8.75 18.9563 8.75 17.6674V16.3317C8.75 15.0437 9.58347 14 10.612 14H30.888C31.9158 14 32.75 15.0437 32.75 16.3317Z" fill="white"/>
<path fill-rule="evenodd" clip-rule="evenodd" d="M10.612 14.6999C10.1088 14.6999 9.44999 15.2751 9.44999 16.3316V17.6673C9.44999 18.7249 10.1089 19.2999 10.612 19.2999H30.888C31.3905 19.2999 32.05 18.7247 32.05 17.6673V16.3316C32.05 15.2753 31.3906 14.6999 30.888 14.6999H10.612ZM8.04999 16.3316C8.04999 14.8122 9.05814 13.2999 10.612 13.2999H30.888C32.441 13.2999 33.45 14.812 33.45 16.3316V17.6673C33.45 19.1877 32.4411 20.6999 30.888 20.6999H10.612C9.05799 20.6999 8.04999 19.1875 8.04999 17.6673V16.3316Z" fill="#333333"/>
<path fill-rule="evenodd" clip-rule="evenodd" d="M18.75 31H22.75V14H18.75V31Z" fill="#73AFFF"/>
<path fill-rule="evenodd" clip-rule="evenodd" d="M18.1 14C18.1 13.641 18.391 13.35 18.75 13.35H22.75C23.109 13.35 23.4 13.641 23.4 14V31C23.4 31.359 23.109 31.65 22.75 31.65H18.75C18.391 31.65 18.1 31.359 18.1 31V14ZM19.4 14.65V30.35H22.1V14.65H19.4Z" fill="#333333"/>
</svg>
