<svg width="41" height="40" viewBox="0 0 41 40" fill="none" xmlns="http://www.w3.org/2000/svg">
<path fill-rule="evenodd" clip-rule="evenodd" d="M16.25 33C15.6977 33 15.25 32.5523 15.25 32V28C15.25 27.4477 15.6977 27 16.25 27C16.8023 27 17.25 27.4477 17.25 28V32C17.25 32.5523 16.8023 33 16.25 33Z" fill="white"/>
<path fill-rule="evenodd" clip-rule="evenodd" d="M14.05 32V28C14.05 26.7849 15.035 25.8 16.25 25.8C17.465 25.8 18.45 26.7849 18.45 28V32C18.45 33.215 17.465 34.2 16.25 34.2C15.035 34.2 14.05 33.215 14.05 32ZM15.25 32C15.25 32.5522 15.6977 33 16.25 33C16.8023 33 17.25 32.5522 17.25 32V28C17.25 27.4477 16.8023 27 16.25 27C15.6977 27 15.25 27.4477 15.25 28V32Z" fill="#333333"/>
<path fill-rule="evenodd" clip-rule="evenodd" d="M23.75 33C23.1977 33 22.75 32.5523 22.75 32V28C22.75 27.4477 23.1977 27 23.75 27C24.3023 27 24.75 27.4477 24.75 28V32C24.75 32.5523 24.3023 33 23.75 33Z" fill="white"/>
<path fill-rule="evenodd" clip-rule="evenodd" d="M21.55 32V28C21.55 26.7849 22.535 25.8 23.75 25.8C24.965 25.8 25.95 26.7849 25.95 28V32C25.95 33.215 24.965 34.2 23.75 34.2C22.535 34.2 21.55 33.215 21.55 32ZM22.75 32C22.75 32.5522 23.1977 33 23.75 33C24.3023 33 24.75 32.5522 24.75 32V28C24.75 27.4477 24.3023 27 23.75 27C23.1977 27 22.75 27.4477 22.75 28V32Z" fill="#333333"/>
<path d="M22.4091 9.3988C22.7036 9.3988 22.9486 9.48773 22.9994 9.60499L23.0091 9.65017V12.1474C23.0091 12.2863 22.7405 12.3988 22.4091 12.3988C22.1145 12.3988 21.8696 12.3099 21.8187 12.1926L21.8091 12.1474V9.65017C21.8091 9.51135 22.0777 9.3988 22.4091 9.3988Z" fill="#333333"/>
<path d="M17.7389 9.3988C18.0335 9.3988 18.2784 9.48773 18.3292 9.60499L18.3389 9.65017V12.1474C18.3389 12.2863 18.0703 12.3988 17.7389 12.3988C17.4444 12.3988 17.1994 12.3099 17.1486 12.1926L17.1389 12.1474V9.65017C17.1389 9.51135 17.4075 9.3988 17.7389 9.3988Z" fill="#333333"/>
<path d="M17.41 12L13.77 12.9744L13.25 31H26.25V12.9744L23.13 12H17.41Z" fill="white"/>
<path fill-rule="evenodd" clip-rule="evenodd" d="M11.542 15.3719L11.8902 14.7176L12.0624 14.2434L12.6429 13.7299L13.6515 12.8124V30.8075H11.25V16.5084V15.9411L11.542 15.3719Z" fill="#73AFFF"/>
<path fill-rule="evenodd" clip-rule="evenodd" d="M28.8834 15.3719L28.4462 14.7176L28.2301 14.2434L27.5014 13.7299L26.2352 12.8124V30.8075H29.25V16.5084V15.9411L28.8834 15.3719Z" fill="#73AFFF"/>
<path fill-rule="evenodd" clip-rule="evenodd" d="M29.924 31.8006H10.0399V18.8073C10.0399 14.7204 13.353 11.4073 17.4399 11.4073H22.524C26.6109 11.4073 29.924 14.7204 29.924 18.8073V31.8006ZM17.4399 12.8073C14.1262 12.8073 11.4399 15.4936 11.4399 18.8073V30.4007H28.524V18.8073C28.524 15.4936 25.8377 12.8073 22.524 12.8073H17.4399Z" fill="#333333"/>
<path d="M13.5799 12.8123H14.7858V31.383H13.5799V12.8123Z" fill="#333333"/>
<path d="M25.0099 12.8123H26.2158V31.383H25.0099V12.8123Z" fill="#333333"/>
<path d="M16.25 8C16.25 7.44772 16.6977 7 17.25 7H23.25C23.8023 7 24.25 7.44772 24.25 8C24.25 8.55228 23.8023 9 23.25 9H17.25C16.6977 9 16.25 8.55228 16.25 8Z" fill="white"/>
<path fill-rule="evenodd" clip-rule="evenodd" d="M17.25 5.69995H23.25C24.5203 5.69995 25.55 6.7297 25.55 7.99995C25.55 9.27021 24.5203 10.3 23.25 10.3H17.25C15.9798 10.3 14.95 9.27021 14.95 7.99995C14.95 6.7297 15.9798 5.69995 17.25 5.69995ZM17.25 6.99995C16.6977 6.99995 16.25 7.44767 16.25 7.99995C16.25 8.55224 16.6977 8.99995 17.25 8.99995H23.25C23.8023 8.99995 24.25 8.55224 24.25 7.99995C24.25 7.44767 23.8023 6.99995 23.25 6.99995H17.25Z" fill="#333333"/>
</svg>
