<svg width="40" height="40" viewBox="0 0 40 40" fill="none" xmlns="http://www.w3.org/2000/svg">
<path fill-rule="evenodd" clip-rule="evenodd" d="M23.4659 27.0536C23.7162 27.3109 23.7105 27.7224 23.4532 27.9727L19.9532 31.3776C19.6959 31.628 19.2844 31.6223 19.0341 31.365C18.7838 31.1077 18.7894 30.6962 19.0467 30.4458L22.5467 27.0409C22.804 26.7906 23.2156 26.7963 23.4659 27.0536Z" fill="#333333"/>
<path fill-rule="evenodd" clip-rule="evenodd" d="M10.4659 15.3795C10.7162 15.6368 10.7105 16.0483 10.4532 16.2986L6.95322 19.7036C6.69591 19.9539 6.28439 19.9482 6.03407 19.6909C5.78375 19.4336 5.78942 19.0221 6.04673 18.7718L9.54673 15.3668C9.80404 15.1165 10.2156 15.1222 10.4659 15.3795Z" fill="#333333"/>
<path fill-rule="evenodd" clip-rule="evenodd" d="M25.4659 28.9992C25.7162 29.2566 25.7105 29.6681 25.4532 29.9184L23.9532 31.3777C23.6959 31.628 23.2844 31.6223 23.0341 31.365C22.7838 31.1077 22.7894 30.6962 23.0467 30.4458L24.5467 28.9866C24.804 28.7363 25.2156 28.7419 25.4659 28.9992Z" fill="#333333"/>
<path fill-rule="evenodd" clip-rule="evenodd" d="M12.4659 17.3252C12.7162 17.5825 12.7105 17.994 12.4532 18.2443L10.9532 19.7036C10.6959 19.9539 10.2844 19.9482 10.0341 19.6909C9.78375 19.4336 9.78942 19.0221 10.0467 18.7718L11.5467 17.3125C11.804 17.0622 12.2156 17.0679 12.4659 17.3252Z" fill="#333333"/>
<path fill-rule="evenodd" clip-rule="evenodd" d="M17.1368 9.89655C17.6399 9.41246 18.4498 9.41246 18.9529 9.89655C19.4639 10.3882 19.4639 11.1912 18.9529 11.6828L18.3408 12.2718C17.8377 12.7559 17.0278 12.7559 16.5247 12.2718C16.0137 11.7801 16.0137 10.9772 16.5247 10.4855L17.1368 9.89655Z" fill="white"/>
<path fill-rule="evenodd" clip-rule="evenodd" d="M18.4896 11.2271C18.7398 10.9863 18.7398 10.5931 18.4896 10.3523C18.2432 10.1152 17.8465 10.1152 17.6001 10.3523L16.9881 10.9412C16.7378 11.182 16.7378 11.5753 16.9881 11.8161C17.2344 12.0531 17.6311 12.0531 17.8775 11.8161L18.4896 11.2271ZM19.4162 9.44082C20.188 10.1834 20.188 11.396 19.4162 12.1386L18.8041 12.7275C18.0443 13.4586 16.8212 13.4586 16.0614 12.7275C15.2897 11.985 15.2897 10.7723 16.0614 10.0298L16.6735 9.44082C17.4333 8.70973 18.6564 8.70972 19.4162 9.44082Z" fill="#333333"/>
<path fill-rule="evenodd" clip-rule="evenodd" d="M29.2557 21.1617C29.7588 20.6776 30.5687 20.6776 31.0718 21.1617C31.5828 21.6534 31.5828 22.4563 31.0718 22.948L30.4597 23.5369C29.9566 24.021 29.1467 24.021 28.6436 23.5369C28.1326 23.0453 28.1326 22.2423 28.6436 21.7506L29.2557 21.1617Z" fill="white"/>
<path fill-rule="evenodd" clip-rule="evenodd" d="M30.6085 22.4922C30.8587 22.2514 30.8587 21.8582 30.6085 21.6174C30.3621 21.3803 29.9654 21.3803 29.719 21.6174L29.107 22.2064C28.8567 22.4472 28.8567 22.8404 29.107 23.0812C29.3533 23.3183 29.75 23.3183 29.9964 23.0812L30.6085 22.4922ZM31.5351 20.706C32.3069 21.4485 32.3068 22.6612 31.5351 23.4037L30.923 23.9927C30.1632 24.7238 28.9401 24.7238 28.1803 23.9927C27.4086 23.2501 27.4086 22.0375 28.1803 21.2949L28.7924 20.706C29.5522 19.9749 30.7753 19.9749 31.5351 20.706Z" fill="#333333"/>
<path fill-rule="evenodd" clip-rule="evenodd" d="M9.15568 9.40393L23.2278 13.5343L18.1198 19.2404L7.97363 10.4121L9.15568 9.40393Z" fill="#73AFFF"/>
<path fill-rule="evenodd" clip-rule="evenodd" d="M8.70136 8.87127C8.88111 8.71796 9.12606 8.66567 9.35275 8.7322L23.4249 12.8626C23.6554 12.9302 23.8351 13.1114 23.9009 13.3424C23.9667 13.5735 23.9095 13.8221 23.7493 14.0011L18.6413 19.7073C18.386 19.9924 17.949 20.0197 17.6602 19.7685L7.51407 10.9401C7.36037 10.8064 7.27256 10.6123 7.27357 10.4086C7.27458 10.2048 7.3643 10.0116 7.51931 9.87942L8.70136 8.87127ZM9.32177 10.1822L9.04605 10.4173L18.0585 18.2592L21.9665 13.8936L9.32177 10.1822Z" fill="#333333"/>
<path fill-rule="evenodd" clip-rule="evenodd" d="M31.4956 30.0666L27.2029 16.5265L21.2726 21.4414L30.4478 31.204L31.4956 30.0666Z" fill="#73AFFF"/>
<path fill-rule="evenodd" clip-rule="evenodd" d="M32.0104 30.5409C32.1806 30.3561 32.2388 30.0944 32.1629 29.855L27.8702 16.3149C27.7998 16.093 27.6237 15.9205 27.4003 15.8549C27.177 15.7892 26.9355 15.8389 26.7563 15.9875L20.8259 20.9024C20.6772 21.0257 20.586 21.205 20.574 21.3978C20.562 21.5907 20.6302 21.7799 20.7625 21.9207L29.9378 31.6833C30.0709 31.825 30.2569 31.9049 30.4513 31.9039C30.6457 31.903 30.831 31.8212 30.9627 31.6782L32.0104 30.5409ZM30.7056 29.891L30.4427 30.1764L22.293 21.5049L26.8497 17.7284L30.7056 29.891Z" fill="#333333"/>
<path fill-rule="evenodd" clip-rule="evenodd" d="M11.8978 26.0945C11.8978 26.0945 25.033 9.02283 29.5924 9.02283C33.886 9.45213 27.2138 16.8588 27.2138 16.8588L13.8796 27.912L14.9717 30.9761L13.8796 32L7.57715 26.0945L9.00629 24.9542L11.8978 26.0945Z" fill="white"/>
<path fill-rule="evenodd" clip-rule="evenodd" d="M12.4526 26.5214C12.4525 26.5214 12.4525 26.5215 11.8977 26.0946L12.4526 26.5214C12.2623 26.7687 11.9312 26.8603 11.6409 26.7458L9.1262 25.7541L8.64617 26.1371L13.8794 31.0407L14.1583 30.7791L13.2201 28.147C13.1214 27.87 13.2063 27.5608 13.4328 27.3731L26.7261 16.3539L26.7621 16.3132C26.808 16.2611 26.8755 16.1837 26.9603 16.0846C27.13 15.8864 27.3684 15.6018 27.6417 15.2588C28.1907 14.5694 28.8687 13.6582 29.4112 12.7445C29.9727 11.7989 30.3162 10.9683 30.3323 10.4082C30.3396 10.1546 30.2779 10.0316 30.2123 9.96168C30.1417 9.8864 29.9701 9.77 29.5595 9.72333C29.1808 9.73379 28.6209 9.92376 27.8772 10.3602C27.1312 10.7979 26.2791 11.436 25.3588 12.2225C23.52 13.7941 21.474 15.9023 19.5548 18.0279C17.6385 20.1501 15.8623 22.2742 14.5642 23.869C13.9155 24.6661 13.3868 25.3301 13.0207 25.7945C12.8376 26.0266 12.6952 26.2089 12.5987 26.3328C12.5505 26.3948 12.5137 26.4422 12.4891 26.474L12.4614 26.5098L12.4526 26.5214ZM27.2138 16.8589C27.7339 17.3274 27.734 17.3273 27.7341 17.3271L27.7357 17.3253L27.74 17.3206L27.7555 17.3032C27.7689 17.2882 27.7883 17.2663 27.8132 17.238C27.863 17.1814 27.9346 17.0993 28.0239 16.995C28.2023 16.7865 28.4515 16.4891 28.7367 16.131C29.3045 15.4182 30.0262 14.4509 30.615 13.4593C31.1849 12.4995 31.7044 11.398 31.7317 10.4485C31.7462 9.94739 31.6248 9.42125 31.2334 9.00399C30.8492 8.59426 30.2981 8.38996 29.662 8.32635C29.6388 8.32404 29.6156 8.32288 29.5923 8.32288C28.8314 8.32288 27.9943 8.66826 27.1687 9.15269C26.3237 9.64851 25.4016 10.3442 24.4492 11.1582C22.5429 12.7875 20.4502 14.9472 18.5157 17.0896C16.5782 19.2354 14.7857 21.3791 13.4784 22.9853C12.8245 23.7887 12.2913 24.4584 11.9213 24.9276C11.8253 25.0493 11.7403 25.1576 11.6671 25.2512L9.26303 24.3031C9.02993 24.2112 8.76548 24.2508 8.56962 24.4071L7.14049 25.5474C6.98163 25.6742 6.8857 25.8637 6.87763 26.0668C6.86956 26.2699 6.95015 26.4664 7.09845 26.6054L13.4009 32.5109C13.6702 32.7632 14.0891 32.7631 14.3583 32.5107L15.4504 31.4868C15.6536 31.2963 15.7245 31.0035 15.631 30.7411L14.7033 28.1384L27.6605 17.3978C27.6866 17.3762 27.7114 17.3524 27.7341 17.3271L27.2138 16.8589Z" fill="#333333"/>
</svg>
