<svg width="40" height="40" viewBox="0 0 40 40" fill="none" xmlns="http://www.w3.org/2000/svg">
<path d="M30.5926 12C31.2311 12 31.8434 12.2479 32.2949 12.6892C32.7464 13.1304 33 13.7289 33 14.3529V16.4424C32.0346 16.4424 31.1087 16.8172 30.4261 17.4844C29.7435 18.1516 29.36 19.0565 29.36 20C29.36 20.9435 29.7435 21.8484 30.4261 22.5156C31.1087 23.1828 32.0346 23.5576 33 23.5576V25.6471C33 26.2711 32.7464 26.8696 32.2949 27.3108C31.8434 27.7521 31.2311 28 30.5926 28H9.40741C8.76892 28 8.1566 27.7521 7.70512 27.3108C7.25364 26.8696 7 26.2711 7 25.6471V14.3529C7 13.7289 7.25364 13.1304 7.70512 12.6892C8.1566 12.2479 8.76892 12 9.40741 12H30.5926Z" fill="white"/>
<path fill-rule="evenodd" clip-rule="evenodd" d="M9.4074 12.7C8.94947 12.7 8.51342 12.878 8.19439 13.1898C7.87589 13.5011 7.69999 13.9198 7.69999 14.353V25.6471C7.69999 26.0803 7.87589 26.499 8.19439 26.8103C8.51342 27.1221 8.94947 27.3 9.4074 27.3H30.5926C31.0505 27.3 31.4866 27.1221 31.8056 26.8103C32.1241 26.499 32.3 26.0803 32.3 25.6471V24.202C31.4125 24.0597 30.5841 23.6489 29.9368 23.0163C29.1212 22.2191 28.66 21.1345 28.66 20C28.66 18.8656 29.1212 17.781 29.9368 16.9838C30.5841 16.3512 31.4125 15.9404 32.3 15.7981V14.353C32.3 13.9198 32.1241 13.5011 31.8056 13.1898C31.4866 12.878 31.0505 12.7 30.5926 12.7H9.4074ZM7.21583 12.1886C7.79974 11.6179 8.58836 11.3 9.4074 11.3H30.5926C31.4116 11.3 32.2002 11.6179 32.7841 12.1886C33.3686 12.7598 33.7 13.5381 33.7 14.353V16.4424C33.7 16.829 33.3866 17.1424 33 17.1424C32.2152 17.1424 31.4656 17.4473 30.9154 17.985C30.3657 18.5222 30.06 19.2474 30.06 20C30.06 20.7527 30.3657 21.4779 30.9154 22.0151C31.4656 22.5528 32.2152 22.8577 33 22.8577C33.3866 22.8577 33.7 23.1711 33.7 23.5577V25.6471C33.7 26.462 33.3686 27.2403 32.7841 27.8115C32.2002 28.3822 31.4116 28.7001 30.5926 28.7001H9.4074C8.58836 28.7001 7.79974 28.3822 7.21583 27.8115C6.63137 27.2403 6.29999 26.462 6.29999 25.6471V14.353C6.29999 13.5381 6.63137 12.7598 7.21583 12.1886Z" fill="#333333"/>
<path d="M15.794 22.1154L13.9834 23.0684C13.916 23.103 13.8379 23.1105 13.7652 23.0892C13.6925 23.068 13.6307 23.0195 13.5927 22.954C13.5744 22.8951 13.5744 22.8319 13.5927 22.773L13.9453 20.7718L12.4491 19.3901C12.3968 19.3366 12.3674 19.2648 12.3674 19.1899C12.3674 19.1151 12.3968 19.0432 12.4491 18.9898C12.4952 18.9429 12.5555 18.9128 12.6207 18.904L14.6409 18.6086L15.5462 16.7885C15.5633 16.7544 15.5871 16.724 15.6162 16.6992C15.6452 16.6744 15.679 16.6556 15.7154 16.6441C15.7518 16.6325 15.7902 16.6284 15.8282 16.632C15.8663 16.6355 15.9032 16.6466 15.9369 16.6647C15.9914 16.6902 16.0352 16.734 16.0608 16.7885L16.966 18.6086L18.9958 18.904C19.0702 18.9158 19.1369 18.9564 19.1815 19.0171C19.2261 19.0778 19.245 19.1535 19.234 19.228C19.2272 19.291 19.1965 19.349 19.1483 19.3901L17.6903 20.8099L18.0333 22.8111C18.0402 22.8474 18.0396 22.8848 18.0318 22.9209C18.0239 22.9571 18.0088 22.9912 17.9875 23.0215C17.9662 23.0517 17.939 23.0773 17.9076 23.0968C17.8762 23.1163 17.8412 23.1293 17.8046 23.1351C17.7766 23.1493 17.7456 23.1567 17.7141 23.1567C17.6826 23.1567 17.6516 23.1493 17.6236 23.1351L15.794 22.1154Z" fill="#73AFFF"/>
<path fill-rule="evenodd" clip-rule="evenodd" d="M15.7939 22.1154L13.9834 23.0683C13.916 23.103 13.8379 23.1104 13.7652 23.0892C13.6925 23.0679 13.6307 23.0195 13.5927 22.9539C13.5743 22.895 13.5743 22.8318 13.5927 22.7729L13.9452 20.7717L12.4491 19.39C12.3968 19.3365 12.3674 19.2647 12.3674 19.1899C12.3674 19.115 12.3968 19.0432 12.4491 18.9897C12.4952 18.9429 12.5555 18.9127 12.6207 18.904L14.6409 18.6086L15.5462 16.7885C15.5633 16.7543 15.5871 16.7239 15.6161 16.6991C15.6452 16.6743 15.6789 16.6556 15.7154 16.644C15.7518 16.6325 15.7902 16.6284 15.8282 16.6319C15.8662 16.6354 15.9032 16.6465 15.9369 16.6646C15.9914 16.6901 16.0352 16.734 16.0608 16.7885L16.966 18.6086L18.9958 18.904C19.0702 18.9157 19.1369 18.9564 19.1815 19.017C19.2261 19.0777 19.245 19.1535 19.234 19.228C19.2272 19.2909 19.1965 19.3489 19.1483 19.39L17.6903 20.8098L18.0333 22.811C18.0402 22.8474 18.0396 22.8847 18.0317 22.9208C18.0239 22.957 18.0088 22.9912 17.9875 23.0214C17.9662 23.0516 17.939 23.0772 17.9076 23.0967C17.8762 23.1162 17.8411 23.1293 17.8046 23.135C17.7766 23.1492 17.7455 23.1567 17.7141 23.1567C17.6826 23.1567 17.6516 23.1492 17.6236 23.135L15.7939 22.1154ZM18.1624 24.283C18.0186 24.3316 17.8672 24.3567 17.7141 24.3567C17.4935 24.3567 17.2766 24.3046 17.0807 24.2052L17.0598 24.1946L15.7776 23.48L14.5327 24.1353C14.1918 24.3107 13.7963 24.3486 13.4281 24.2409C13.0599 24.1331 12.7473 23.888 12.5548 23.5563L12.4869 23.4394L12.4468 23.3102C12.3667 23.0528 12.3575 22.7792 12.4191 22.518L12.6498 21.2088L11.613 20.2513L11.5922 20.23C11.3199 19.9522 11.1674 19.5788 11.1674 19.1899C11.1674 18.8011 11.3198 18.4276 11.5922 18.1497L11.5932 18.1487C11.8239 17.9139 12.1256 17.7618 12.4515 17.716L13.8461 17.512L14.4733 16.2509C14.5624 16.0731 14.6862 15.9153 14.837 15.7865C14.9878 15.6577 15.1631 15.5602 15.3527 15.5001C15.5424 15.44 15.7418 15.4187 15.9392 15.437C16.1263 15.4544 16.3084 15.5071 16.4757 15.5923C16.7645 15.7356 16.9979 15.9709 17.1389 16.2616L17.7606 17.5116L19.1758 17.7175L19.183 17.7187C19.5697 17.7798 19.9165 17.991 20.1483 18.3061C20.3757 18.6154 20.4745 19.0005 20.4243 19.3808C20.3818 19.7207 20.2202 20.0344 19.9685 20.2662L18.9797 21.2292L19.2151 22.6026C19.2491 22.7929 19.2453 22.9878 19.2042 23.1763C19.1622 23.3691 19.082 23.5518 18.9679 23.7134C18.8538 23.8749 18.7086 24.0118 18.5409 24.116C18.4229 24.1894 18.2954 24.2455 18.1624 24.283Z" fill="#333333"/>
<path d="M24.6528 25.9238V25.3521C24.6528 25.0889 24.8661 24.8756 25.1292 24.8756C25.3924 24.8756 25.6057 25.0889 25.6057 25.3521V25.9238C25.6057 26.187 25.3924 26.4003 25.1292 26.4003C24.8661 26.4003 24.6528 26.187 24.6528 25.9238Z" fill="#333333"/>
<path d="M24.6528 22.1653V21.5935C24.6528 21.3304 24.8661 21.1171 25.1292 21.1171C25.3924 21.1171 25.6057 21.3304 25.6057 21.5935V22.1653C25.6057 22.4284 25.3924 22.6418 25.1292 22.6418C24.8661 22.6418 24.6528 22.4284 24.6528 22.1653Z" fill="#333333"/>
<path d="M24.6528 18.4066V17.8349C24.6528 17.5717 24.8661 17.3584 25.1292 17.3584C25.3924 17.3584 25.6057 17.5717 25.6057 17.8349V18.4066C25.6057 18.6698 25.3924 18.8831 25.1292 18.8831C24.8661 18.8831 24.6528 18.6698 24.6528 18.4066Z" fill="#333333"/>
<path d="M24.6528 24.0443V23.4726C24.6528 23.2094 24.8661 22.9961 25.1292 22.9961C25.3924 22.9961 25.6057 23.2094 25.6057 23.4726V24.0443C25.6057 24.3075 25.3924 24.5208 25.1292 24.5208C24.8661 24.5208 24.6528 24.3075 24.6528 24.0443Z" fill="#333333"/>
<path d="M24.6528 20.2858V19.714C24.6528 19.4509 24.8661 19.2375 25.1292 19.2375C25.3924 19.2375 25.6057 19.4509 25.6057 19.714V20.2858C25.6057 20.5489 25.3924 20.7622 25.1292 20.7622C24.8661 20.7622 24.6528 20.5489 24.6528 20.2858Z" fill="#333333"/>
<path d="M24.6528 16.5271V15.9553C24.6528 15.6922 24.8661 15.4789 25.1292 15.4789C25.3924 15.4789 25.6057 15.6922 25.6057 15.9553V16.5271C25.6057 16.7903 25.3924 17.0036 25.1292 17.0036C24.8661 17.0036 24.6528 16.7903 24.6528 16.5271Z" fill="#333333"/>
<path d="M24.6528 14.648V14.0762C24.6528 13.8131 24.8661 13.5997 25.1292 13.5997C25.3924 13.5997 25.6057 13.8131 25.6057 14.0762V14.648C25.6057 14.9111 25.3924 15.1244 25.1292 15.1244C24.8661 15.1244 24.6528 14.9111 24.6528 14.648Z" fill="#333333"/>
</svg>
