<svg width="41" height="40" viewBox="0 0 41 40" fill="none" xmlns="http://www.w3.org/2000/svg">
<path d="M38.9 19.4668H34.0597V11H27.9958L22.0675 17.9223L16.1437 11H10.0809V13.1997L8.55389 11H3.90002V23.5431L18.2974 31.7746C19.3765 32.4719 20.6674 32.875 22.0686 32.875C23.4699 32.875 24.7751 32.4686 25.8586 31.7635L38.9 23.5209V19.4668Z" fill="#333333"/>
<path d="M4.67761 11.7839H8.23477L10.8276 15.5626H10.8585V11.7839H15.8334V23.1789H12.0633L9.68234 19.6578H9.65145V23.0879H4.67761V11.7839Z" fill="#FFFF33"/>
<path d="M28.3055 11.7839H33.2805V20.2497H38.1208V23.0879H28.3055V11.7839Z" fill="#FFFF33"/>
<path d="M22.0695 32.0454C18.6436 32.0454 15.9592 29.3227 15.9592 25.8472C15.9592 22.3716 18.6425 19.6655 22.0695 19.6655C25.4965 19.6655 28.1809 22.3805 28.1809 25.8472C28.1809 29.3138 25.4965 32.0454 22.0695 32.0454Z" fill="#FFFF33"/>
<path d="M22.0695 27.8925C21.3766 27.8925 20.8757 27.032 20.8757 25.855C20.8757 24.6779 21.3755 23.8196 22.0695 23.8196C22.7635 23.8196 23.2634 24.6801 23.2634 25.855C23.2634 27.0298 22.7635 27.8925 22.0695 27.8925Z" fill="#333333"/>
</svg>
