<svg width="162" height="38" viewBox="0 0 162 38" fill="none" xmlns="http://www.w3.org/2000/svg">
<g clip-path="url(#clip0_494_30532)">
<path d="M118.479 0H113.335V29.1325H118.687V15.7959H120.887C122.126 15.7959 122.671 14.8174 122.671 14.8174L124.092 12.1642C124.473 11.1153 123.13 11.1858 123.13 11.1858H118.557L118.479 0Z" fill="#CCCCCC"/>
<path d="M104.215 5.26235H107.931V1.29576H84.5379V5.26235H88.2967V22.9269H84.0876V26.9552H108.866V22.9269H104.215V5.26235ZM98.9408 22.9269H93.5278V5.26235H98.9408V22.9269ZM27.8704 28.5595H33.1015V0H27.8704V28.5683V28.5595ZM21.6953 10.3925C21.6953 4.86569 16.7326 0.317328 10.826 0.317328C4.91933 0.317328 0 4.86569 0 10.3925C0 15.9193 4.96263 20.4765 10.826 20.4765C16.6893 20.4765 21.6953 15.9634 21.6953 10.3925ZM5.23111 10.3925C5.23111 7.12225 7.73408 4.85688 10.826 4.85688C13.9179 4.85688 16.4122 7.11343 16.4122 10.3925C16.4122 13.6715 13.9525 15.9722 10.826 15.9722C7.69944 15.9722 5.23111 13.6275 5.23111 10.3925ZM46.3612 18.8369V15.408H62.9812V11.3797H46.3612V5.49153H62.9812V1.12828H41.4332V20.0269C41.5371 21.5695 42.5071 23.4734 43.2866 24.3814C45.6337 27.1051 48.6736 26.7613 48.6736 26.7613H63.0765V22.4686H49.7649C46.621 22.2835 46.3525 18.8369 46.3525 18.8369H46.3612ZM70.9925 11.1858H66.4196C66.4196 11.1858 64.9559 11.0624 65.4582 12.1642L66.8786 14.8174C66.8786 14.8174 67.4242 15.7959 68.6627 15.7959H70.8625V29.1325H76.2149V0H71.0704L71.0011 11.177L70.9925 11.1858ZM157.921 25.113V8.68244C157.808 6.90188 156.682 4.69821 155.782 3.64927C153.071 0.502436 149.563 0.899095 149.563 0.899095H130.691V5.31524H148.299C151.936 5.52679 152.239 8.87636 152.239 8.87636V11.2299H130.804V15.5931H152.239V25.0248H127.452V29.2911H162V25.113H157.921ZM11.718 28.9209L11.5188 26.1002H6.46961V29.6261C6.79006 34.6152 9.94258 36.5456 10.0379 36.6337C11.5708 38.0882 15.3902 37.9912 15.3902 37.9912H32.9283V33.5574H16.7759C11.848 33.6279 11.7267 28.9209 11.7267 28.9209H11.718Z" fill="#CCCCCC"/>
</g>
<defs>
<clipPath id="clip0_494_30532">
<rect width="162" height="38" fill="white"/>
</clipPath>
</defs>
</svg>
