<svg width="16" height="16" viewBox="0 0 16 16" fill="none" xmlns="http://www.w3.org/2000/svg">
<path fill-rule="evenodd" clip-rule="evenodd" d="M16 8C16 12.42 12.42 16 8 16C3.58 16 0 12.42 0 8C0 3.58 3.58 0 8 0C12.42 0 16 3.58 16 8ZM10.02 4.77C10.35 4.44 10.9 4.44 11.23 4.77C11.56 5.1 11.56 5.65 11.23 5.98L9.21 8L11.23 10.02C11.56 10.35 11.56 10.9 11.23 11.23C10.9 11.56 10.35 11.56 10.02 11.23L8 9.21L5.98 11.23C5.65 11.56 5.1 11.56 4.77 11.23C4.44 10.9 4.44 10.35 4.77 10.02L6.79 8L4.77 5.98C4.44 5.65 4.44 5.1 4.77 4.77C5.1 4.44 5.65 4.44 5.98 4.77L8 6.79L10.02 4.77Z" fill="#DDDDDD"/>
</svg>
