<svg width="64" height="65" viewBox="0 0 64 65" fill="none" xmlns="http://www.w3.org/2000/svg">
<rect y="0.50293" width="64" height="64" rx="32" fill="#EEEEEE"/>
<path fill-rule="evenodd" clip-rule="evenodd" d="M32 23.8147L26.9081 18.6063C26.9081 18.6063 24.6089 16.3657 22.5072 18.2703C20.4055 20.1748 18.5 23.8147 18.5 23.8147L19.8143 25.3832L26.5132 26.5029L32 23.8147Z" fill="#4A95FF"/>
<path fill-rule="evenodd" clip-rule="evenodd" d="M27.6404 17.8535C27.6408 17.8538 27.6411 17.8541 26.9083 18.6061L27.6404 17.8535L27.6591 17.8721L32.751 23.0805C32.9865 23.3214 33.0922 23.6607 33.035 23.9928C32.9778 24.3248 32.7647 24.6092 32.4622 24.7574L26.9754 27.4457C26.7786 27.5421 26.5565 27.5745 26.3403 27.5384L19.6414 26.4187C19.3945 26.3774 19.1705 26.2493 19.0097 26.0574L17.6954 24.4889C17.4222 24.1629 17.3727 23.7044 17.57 23.3276L18.5002 23.8145C17.57 23.3276 17.5699 23.3277 17.57 23.3276L17.5723 23.3232L17.5773 23.3135L17.5957 23.279C17.6115 23.2494 17.6344 23.2067 17.664 23.1524C17.7231 23.0437 17.8091 22.8881 17.9186 22.6961C18.1372 22.3125 18.4509 21.7814 18.8328 21.1881C19.5847 20.0201 20.6465 18.5394 21.8023 17.492C23.2293 16.1989 24.7823 16.3245 25.8729 16.7439C26.4017 16.9472 26.8358 17.2203 27.133 17.436C27.2836 17.5453 27.4041 17.6436 27.4897 17.7172C27.5326 17.754 27.567 17.7849 27.5924 17.8083L27.6237 17.8374L27.6342 17.8474L27.6381 17.8512L27.6404 17.8535ZM19.7678 23.6925L20.3702 24.4113L26.3541 25.4116L30.2345 23.5104L26.1724 19.3554C26.1631 19.3468 26.1452 19.3306 26.1211 19.31C26.0727 19.2684 25.9972 19.2065 25.8994 19.1355C25.6999 18.9907 25.4278 18.8226 25.1191 18.7039C24.5347 18.4792 23.8872 18.4367 23.2125 19.0482C22.2666 19.9053 21.3247 21.1968 20.5985 22.3249C20.2556 22.8576 19.9709 23.3378 19.7678 23.6925Z" fill="#333333"/>
<path fill-rule="evenodd" clip-rule="evenodd" d="M32 23.8147L37.0915 18.6059C37.0915 18.6059 39.3909 16.3657 41.4922 18.2706C43.5946 20.1745 45.5 23.8147 45.5 23.8147L44.1857 25.3823L37.4855 26.5029L32 23.8147Z" fill="#4A95FF"/>
<path fill-rule="evenodd" clip-rule="evenodd" d="M37.8275 19.355L33.7657 23.5104L37.6451 25.4115L43.6304 24.4105L44.2325 23.6923C44.0295 23.3376 43.7448 22.8575 43.4019 22.3248C42.6756 21.1968 41.7337 19.9055 40.7876 19.0487C40.113 18.4372 39.4652 18.4791 38.8808 18.7038C38.5721 18.8224 38.3 18.9905 38.1005 19.1353C38.0026 19.2062 37.9271 19.2681 37.8788 19.3096C37.8547 19.3303 37.8368 19.3465 37.8275 19.355ZM45.5002 23.8145L46.4305 23.3276C46.6277 23.7045 46.5781 24.1631 46.3048 24.4891L44.9905 26.0567C44.8298 26.2485 44.6059 26.3765 44.3591 26.4178L37.6589 27.5384C37.4427 27.5745 37.2206 27.5421 37.0237 27.4456L31.5381 24.7574C31.2356 24.6091 31.0226 24.3247 30.9654 23.9927C30.9083 23.6607 31.0139 23.3215 31.2493 23.0806L36.3408 17.8717L36.359 17.8536L37.0917 18.6057C36.359 17.8536 36.3586 17.8539 36.359 17.8536L36.3604 17.8522L36.362 17.8507L36.3659 17.8469L36.3764 17.8369L36.4077 17.8077C36.433 17.7844 36.4675 17.7535 36.5104 17.7167C36.596 17.6431 36.7166 17.5448 36.8671 17.4356C37.1644 17.2199 37.5985 16.9469 38.1273 16.7436C39.2178 16.3244 40.7706 16.1991 42.1972 17.4921C43.3536 18.5393 44.4155 20.02 45.1676 21.188C45.5495 21.7813 45.8632 22.3125 46.0819 22.696C46.1913 22.888 46.2773 23.0437 46.3364 23.1524C46.366 23.2067 46.3889 23.2494 46.4047 23.279L46.4231 23.3136L46.4282 23.3232L46.4305 23.3276C46.4305 23.3277 46.4305 23.3276 45.5002 23.8145Z" fill="#333333"/>
<path fill-rule="evenodd" clip-rule="evenodd" d="M48.5 30.6765V46.3294C48.5 47.8051 47.2351 49.0029 45.6742 49.0029H18.3258C16.7649 49.0029 15.5 47.8051 15.5 46.3294V30.6765C15.5 29.1997 16.7649 28.0029 18.3258 28.0029H45.6742C47.2351 28.0029 48.5 29.1997 48.5 30.6765Z" fill="white"/>
<path fill-rule="evenodd" clip-rule="evenodd" d="M18.326 29.0526C17.2894 29.0526 16.5502 29.8333 16.5502 30.6762V46.3291C16.5502 47.1712 17.2897 47.9526 18.326 47.9526H45.6744C46.7107 47.9526 47.4502 47.1712 47.4502 46.3291V30.6762C47.4502 29.8333 46.7109 29.0526 45.6744 29.0526H18.326ZM14.4502 30.6762C14.4502 28.5655 16.2408 26.9526 18.326 26.9526H45.6744C47.7596 26.9526 49.5502 28.5655 49.5502 30.6762V46.3291C49.5502 48.4385 47.7599 50.0526 45.6744 50.0526H18.326C16.2405 50.0526 14.4502 48.4385 14.4502 46.3291V30.6762Z" fill="#333333"/>
<path fill-rule="evenodd" clip-rule="evenodd" d="M50 27.0005V29.0041C50 30.9374 48.7487 32.5029 47.207 32.5029H16.793C15.2502 32.5029 14 30.9374 14 29.0041V27.0005C14 25.0685 15.2502 23.5029 16.793 23.5029H47.207C48.7487 23.5029 50 25.0685 50 27.0005Z" fill="white"/>
<path fill-rule="evenodd" clip-rule="evenodd" d="M16.7932 24.5526C16.0384 24.5526 15.0502 25.4154 15.0502 27.0002V29.0038C15.0502 30.5901 16.0386 31.4526 16.7932 31.4526H47.2072C47.9609 31.4526 48.9502 30.5898 48.9502 29.0038V27.0002C48.9502 25.4157 47.9612 24.5526 47.2072 24.5526H16.7932ZM12.9502 27.0002C12.9502 24.721 14.4624 22.4526 16.7932 22.4526H47.2072C49.5367 22.4526 51.0502 24.7207 51.0502 27.0002V29.0038C51.0502 31.2843 49.5369 33.5526 47.2072 33.5526H16.7932C14.4622 33.5526 12.9502 31.284 12.9502 29.0038V27.0002Z" fill="#333333"/>
<path fill-rule="evenodd" clip-rule="evenodd" d="M29 49.0029H35V23.5029H29V49.0029Z" fill="#4A95FF"/>
<path fill-rule="evenodd" clip-rule="evenodd" d="M28.0254 23.5028C28.0254 22.9644 28.4619 22.5278 29.0004 22.5278H35.0004C35.5389 22.5278 35.9754 22.9644 35.9754 23.5028V49.0028C35.9754 49.5413 35.5389 49.9778 35.0004 49.9778H29.0004C28.4619 49.9778 28.0254 49.5413 28.0254 49.0028V23.5028ZM29.9754 24.4778V48.0278H34.0254V24.4778H29.9754Z" fill="#333333"/>
</svg>
