<svg width="64" height="65" viewBox="0 0 64 65" fill="none" xmlns="http://www.w3.org/2000/svg">
<rect y="0.5" width="64" height="64" rx="32" fill="#EEEEEE"/>
<path fill-rule="evenodd" clip-rule="evenodd" d="M36.9309 50.2505C36.9323 49.4771 36.3311 49.0756 35.5938 49.3576L33.1458 50.2962C32.4086 50.5789 31.2026 50.5761 30.4667 50.2906L28.023 49.3414C27.2872 49.0559 26.6838 49.4546 26.6824 50.228L26.6759 52.9076C26.6737 53.6811 27.2757 54.0826 28.0129 53.7999L30.4609 52.8619C31.1982 52.58 32.4035 52.5814 33.1394 52.8683L35.583 53.8168C36.3189 54.103 36.923 53.7036 36.9244 52.9308L36.9309 50.2505Z" fill="#FF5F5F"/>
<path fill-rule="evenodd" clip-rule="evenodd" d="M38.0541 48.1424C37.5141 46.2489 35.2792 47.5624 34.1316 48.0025C33.4756 48.2535 32.819 48.5053 32.1631 48.7563C31.8146 48.8899 31.8823 48.9215 31.5979 48.8118C30.2983 48.3084 29.0001 47.8035 27.702 47.2987C27.0021 47.0266 26.1756 46.9633 25.7205 47.7114C25.4455 48.1628 25.5211 48.7675 25.5204 49.2703C25.5168 50.5865 25.4419 51.9217 25.511 53.2352C25.5607 54.1795 26.3268 54.8474 27.3074 54.5803C27.8287 54.4389 28.3428 54.1837 28.8453 53.991C29.5639 53.7161 30.2824 53.4398 31.0017 53.1649C31.194 53.091 31.739 52.8562 31.8038 52.8604C32.2358 52.8892 32.8204 53.2549 33.2186 53.4096C33.9422 53.6915 34.6658 53.9721 35.3901 54.2533C36.0288 54.5015 36.6789 54.8657 37.3651 54.5163C38.1614 54.1113 38.0844 53.2696 38.0865 52.5377C38.0894 51.1736 38.093 49.8081 38.0959 48.4441C38.0988 46.983 35.7739 46.9809 35.771 48.4441C35.7688 49.2583 35.7674 50.0725 35.7652 50.8867C35.7638 51.438 35.7624 51.9878 35.7609 52.5377C35.7609 52.724 35.7602 52.9089 35.7602 53.0946C35.7602 53.2457 35.6868 53.4222 35.7609 53.1663C35.9395 52.9399 36.1173 52.7135 36.2959 52.4878C36.2606 52.5103 36.226 52.5328 36.1922 52.556C36.3873 52.5039 36.5832 52.4526 36.7783 52.4013C37.0958 52.4336 36.8186 52.3858 36.7142 52.338C36.5241 52.2508 36.3182 52.184 36.1231 52.1088C35.5917 51.9021 35.0604 51.696 34.529 51.4893C33.706 51.1701 32.7132 50.5809 31.8016 50.5802C30.911 50.5795 29.9462 51.1434 29.1412 51.4513C28.5854 51.6644 28.0288 51.8774 27.473 52.0905C27.2872 52.1622 27.0957 52.2248 26.9143 52.3049C26.8113 52.3499 26.4844 52.4111 26.8164 52.3788C27.0115 52.4308 27.2073 52.4821 27.4032 52.5342C27.3686 52.511 27.3333 52.4885 27.2988 52.4646C27.4773 52.6917 27.6552 52.9174 27.8337 53.1431C27.9036 53.3885 27.8352 53.2556 27.8366 53.1065C27.838 52.9286 27.8373 52.75 27.8373 52.5721C27.8388 52.0026 27.8402 51.4338 27.8416 50.8642C27.8424 50.3144 27.8438 49.7646 27.8452 49.2133C27.846 49.0284 27.8467 48.8428 27.8467 48.6571C27.8467 48.5067 27.9201 48.3295 27.8452 48.5861C27.6674 48.8118 27.4896 49.0382 27.311 49.2646C27.3456 49.2414 27.3801 49.2182 27.4147 49.1957C27.2196 49.2471 27.0237 49.2998 26.8286 49.3511C26.5111 49.3181 26.7883 49.3652 26.8927 49.4144C27.0828 49.5016 27.2887 49.567 27.4838 49.6436C28.0152 49.8496 28.5465 50.0563 29.0779 50.2631C29.9008 50.5823 30.8937 51.1715 31.8052 51.1722C32.6959 51.1722 33.66 50.609 34.4656 50.3003C35.0215 50.0873 35.578 49.8742 36.1339 49.6612C36.3189 49.5902 36.5104 49.5269 36.6919 49.4467C36.7948 49.4017 37.1224 49.3399 36.7905 49.3729C36.5954 49.3216 36.3996 49.2696 36.2037 49.2175C36.2383 49.2407 36.2728 49.2639 36.3074 49.2871C36.1296 49.0607 35.9517 48.8343 35.7732 48.6086C35.7861 48.6543 35.7991 48.7 35.812 48.7457C36.2131 50.1506 38.4573 49.5543 38.0541 48.1424Z" fill="#333333"/>
<path fill-rule="evenodd" clip-rule="evenodd" d="M36.9309 49.5474C36.9323 48.774 36.3311 48.3725 35.5938 48.6544L33.1458 49.5931C32.4086 49.8758 31.2026 49.873 30.4667 49.5875L28.023 48.6383C27.2872 48.3528 26.6838 48.7515 26.6824 49.5249L26.6759 52.2045C26.6737 52.978 27.2757 53.3794 28.0129 53.0968L30.4609 52.1588C31.1982 51.8769 32.4035 51.8783 33.1394 52.1651L35.583 53.1137C36.3189 53.3998 36.923 53.0005 36.9244 52.2277L36.9309 49.5474Z" fill="#FF5F5F"/>
<path fill-rule="evenodd" clip-rule="evenodd" d="M36.9892 48.4287C36.8891 48.0764 36.6364 48.2044 36.3679 48.2972C35.7141 48.5257 35.0711 48.7943 34.4253 49.0418C33.5116 49.392 32.2999 50.1647 31.3041 49.8511C29.9836 49.437 28.697 48.8393 27.4082 48.3387C27.2073 48.2606 26.8595 48.0398 26.6745 48.2557C26.5089 48.4477 26.6248 49.0601 26.6241 49.2703L26.6191 51.5302C26.6183 52.0624 26.5111 52.7107 26.6155 53.2352C26.6695 53.5066 26.7062 53.5826 27.0136 53.5411C27.5111 53.4722 28.0871 53.1298 28.5515 52.9512L30.7072 52.125C31.1565 51.9527 31.5964 51.7017 32.0975 51.8198C32.5742 51.933 33.0573 52.1932 33.5116 52.3697C34.2359 52.6509 34.9595 52.9322 35.6839 53.2134C35.9006 53.2978 36.545 53.6916 36.8078 53.5854C37.1152 53.4602 36.9813 52.7705 36.982 52.5377C36.9849 51.173 36.9885 49.8082 36.9914 48.4434C36.9914 48.371 36.8755 48.3703 36.8755 48.4434C36.8726 49.4798 36.8704 50.5162 36.8683 51.5527C36.8668 52.0463 36.9755 52.6755 36.8647 53.1586C36.7631 53.5988 36.4766 53.3991 36.1389 53.269C34.9343 52.8007 33.7291 52.3331 32.5245 51.8648C31.7102 51.5484 31.2292 51.8037 30.4415 52.1053C29.7791 52.3591 29.116 52.613 28.4536 52.8668C28.067 53.0152 27.455 53.3998 27.0352 53.411C26.5982 53.4223 26.7321 52.9463 26.7328 52.6263C26.7343 51.964 26.7364 51.3023 26.7379 50.6407C26.7393 50.0452 26.7407 49.4503 26.7422 48.8548C26.7429 48.4301 26.7739 48.2754 27.2195 48.3865C28.409 48.6832 29.5955 49.3097 30.7367 49.7527C31.0975 49.8926 31.5215 50.1366 31.924 50.0909C32.3416 50.0452 32.7808 49.7934 33.1646 49.6458L35.4167 48.783C35.5903 48.7162 36.7718 48.0898 36.8776 48.4589C36.8978 48.5292 37.0094 48.4997 36.9892 48.4287Z" fill="#F95353"/>
<path fill-rule="evenodd" clip-rule="evenodd" d="M42.5415 12.9429C42.6171 12.8269 42.6243 12.8684 42.5415 12.9429V12.9429ZM49.6069 35.2151C49.5752 34.0212 49.1396 32.7302 48.3282 31.8246C48.3361 31.7895 48.3447 31.7501 48.3519 31.7184C48.447 31.2727 48.5326 30.8262 48.6126 30.3776C49.0194 27.577 49.2044 24.6675 48.8761 21.8522C48.6766 20.1401 48.3318 18.2121 47.0854 16.9001C46.2373 16.0071 45.2142 15.3546 44.461 14.3534C44.1464 13.9357 43.8634 13.4927 43.6107 13.0371C43.5042 12.8445 43.4034 12.6497 43.309 12.4521C43.273 12.3769 43.2378 12.3016 43.2039 12.2257C43.1974 12.2102 43.1946 12.2046 43.1924 12.2018C43.1874 12.1877 43.1787 12.1638 43.1614 12.1188C43.093 11.9402 43.0419 11.7504 42.9577 11.5781C42.5761 10.7948 41.5666 10.6598 40.933 11.2533C40.8625 11.3187 40.7962 11.3932 40.7307 11.4684C40.5975 11.1394 40.3491 10.875 39.9416 10.7583C39.6104 10.6634 39.2389 10.6943 38.9264 10.8335C38.8472 10.8687 38.6679 10.9516 38.5326 11.0423C38.2892 11.0817 37.9609 11.228 37.7636 11.2673C37.2589 11.37 36.7484 11.4417 36.2358 11.4945C34.6719 11.6555 33.0915 11.6808 31.5219 11.5887C30.439 11.5254 29.3583 11.3834 28.2445 11.4263C26.4855 11.4923 24.7395 11.8298 23.1469 12.5766C21.1143 13.5307 19.6707 15.2449 18.9889 17.3065C16.9095 17.9759 15.368 19.9903 14.8964 22.0027C14.6127 23.2141 14.5854 24.5234 14.5818 25.7616C14.576 27.7324 14.7092 29.8045 15.3961 31.6741C15.3968 31.6833 15.3975 31.6931 15.3982 31.7037C14.499 32.6114 14 33.9635 14 35.2151C14 37.1803 15.224 39.3994 17.312 39.739C17.6331 41.1628 18.0003 42.6506 18.7527 43.8572C19.5656 45.1608 20.6665 46.3006 21.8696 47.2673C24.5264 49.402 27.8967 51.1001 31.3563 51.42C31.4701 51.4559 31.5896 51.4777 31.7142 51.4657C31.7732 51.4545 31.833 51.4545 31.8927 51.4657C32.0187 51.4777 32.139 51.4552 32.2542 51.4179C36.261 51.0488 40.3246 48.8508 43.0938 46.0474C44.4394 44.6848 45.253 43.3383 45.7909 41.5228C45.9651 40.9343 46.1278 40.3388 46.2855 39.7418C48.4052 39.4113 49.5543 37.1824 49.6069 35.2151Z" fill="#333333"/>
<path fill-rule="evenodd" clip-rule="evenodd" d="M38.7742 10.4908C39.164 10.3173 39.6258 10.2777 40.0448 10.3978C40.0448 10.3978 40.0449 10.3978 40.0449 10.3978M44.1613 14.5788C43.8352 14.1458 43.5429 13.6881 43.2827 13.219L43.2825 13.2186C43.1726 13.02 43.0684 12.8185 42.9706 12.6137L43.309 12.4521L42.9707 12.614C42.9707 12.6139 42.9706 12.6138 42.9706 12.6137C42.9368 12.5431 42.903 12.4712 42.8701 12.3978L42.8949 12.4302C42.8833 12.415 42.875 12.4017 42.8697 12.3926C42.8664 12.3868 42.8637 12.3819 42.8618 12.3781C42.8608 12.3762 42.86 12.3746 42.8594 12.3734C42.8589 12.3723 42.8585 12.3714 42.8581 12.3706C42.8575 12.3693 42.8571 12.3684 42.8568 12.3678C42.8563 12.3668 42.8567 12.3674 42.858 12.3706L42.8579 12.3706L42.8614 12.3784C42.8642 12.3849 42.8671 12.3913 42.8701 12.3978L42.8592 12.3836L42.8393 12.3283C42.8352 12.3166 42.8275 12.2954 42.8113 12.2533L42.8112 12.253C42.7846 12.1836 42.7591 12.1087 42.7363 12.0421C42.7276 12.0165 42.7192 11.9921 42.7114 11.9696C42.6808 11.882 42.6528 11.8085 42.6208 11.7429L42.6205 11.7424C42.3611 11.2099 41.6586 11.0875 41.1893 11.527L41.1879 11.5283C41.1336 11.5786 41.0791 11.6394 41.0135 11.7147L40.6123 12.1754L40.3831 11.6092C40.2886 11.3757 40.1236 11.2005 39.8383 11.1188L39.8382 11.1188C39.5951 11.0491 39.314 11.0713 39.079 11.1761L39.0785 11.1763C39.0009 11.2107 38.8475 11.2827 38.7413 11.3539L38.6732 11.3995L38.5924 11.4125C38.5064 11.4265 38.3924 11.4622 38.2509 11.5101C38.2365 11.515 38.2215 11.5201 38.2061 11.5253C38.0911 11.5646 37.9515 11.6122 37.8377 11.635C37.8379 11.6349 37.8381 11.6349 37.8383 11.6348L37.7636 11.2674L37.837 11.6351C37.8372 11.6351 37.8375 11.635 37.8377 11.635C37.3184 11.7406 36.7956 11.8139 36.2741 11.8675L36.2357 11.4945L36.2741 11.8675C34.6888 12.0307 33.0882 12.0562 31.5 11.963L31.5219 11.5887L31.4999 11.963C31.1618 11.9433 30.8316 11.9168 30.5054 11.8907C29.752 11.8304 29.0197 11.7717 28.2589 11.801L28.2585 11.801C26.5369 11.8657 24.8428 12.1956 23.306 12.9161C21.3717 13.8242 19.9961 15.4552 19.3449 17.4243L19.2851 17.6051L19.1038 17.6635C17.1739 18.2847 15.7094 20.177 15.2615 22.0882C14.9887 23.2532 14.9603 24.5229 14.9567 25.7627C14.951 27.7222 15.0848 29.7397 15.748 31.5448L15.7658 31.5933L15.7699 31.6447L15.7723 31.6781L15.7839 31.8472L15.6646 31.9676C14.8417 32.7982 14.375 34.0522 14.375 35.2151C14.375 36.1251 14.6598 37.098 15.1841 37.8773C15.7066 38.6541 16.4518 39.2192 17.3722 39.3689L17.6221 39.4095L17.6778 39.6565C18.0003 41.0865 18.3568 42.5137 19.0709 43.6588L18.7527 43.8572L19.0709 43.6588C19.856 44.9178 20.925 46.0273 22.1045 46.975C24.7224 49.0785 28.025 50.7354 31.3908 51.0466L31.4308 51.0503L31.469 51.0624C31.548 51.0873 31.6113 51.0967 31.6665 51.0934C31.7574 51.0785 31.8492 51.0787 31.9398 51.0933C31.9955 51.0967 32.0589 51.0869 32.1387 51.0611L32.1783 51.0483L32.2197 51.0445C36.1242 50.6848 40.109 48.5355 42.8269 45.7839C44.1312 44.4632 44.9118 43.17 45.4313 41.4163M14.9741 31.6072C14.3247 29.7262 14.2011 27.6758 14.2067 25.7605C14.2103 24.5239 14.2367 23.1752 14.5312 21.9172L14.5313 21.9171C15.0131 19.8611 16.5579 17.7831 18.6937 17.0111C19.4292 14.936 20.9156 13.2097 22.9875 12.2371L22.9876 12.237C24.6362 11.4641 26.4341 11.119 28.2304 11.0515C29.0376 11.0205 29.8409 11.0847 30.6134 11.1465C30.9293 11.1717 31.24 11.1966 31.5438 11.2143L31.5438 11.2143C33.0949 11.3053 34.655 11.2802 36.1973 11.1214L36.1973 11.1214C36.701 11.0696 37.1989 10.9995 37.6888 10.8999L37.6902 10.8996C37.7521 10.8873 37.8404 10.8573 37.9703 10.8133C37.9833 10.8089 37.9967 10.8043 38.0106 10.7996C38.1208 10.7623 38.258 10.7167 38.3914 10.6877C38.5404 10.5968 38.7034 10.5222 38.7737 10.491M42.8527 13.1457L42.5415 12.9429L42.2911 12.6648C42.2888 12.6678 42.2811 12.6779 42.2718 12.6942C42.2675 12.7018 42.2581 12.7189 42.2492 12.7426L42.2489 12.7434C42.2485 12.7446 42.2475 12.747 42.2462 12.7505L42.2273 12.7382C42.2519 12.7005 42.2779 12.6646 42.3048 12.6343C42.315 12.6228 42.3404 12.5947 42.3766 12.5685L42.3776 12.5678C42.3887 12.5597 42.4477 12.5165 42.5352 12.5012C42.5867 12.4923 42.6938 12.4854 42.8022 12.5547C42.9177 12.6284 42.9585 12.7388 42.9704 12.8073C42.9884 12.9112 42.9565 12.9931 42.9518 13.0052L42.9513 13.0063C42.9414 13.0328 42.9304 13.0533 42.9238 13.0649C42.9097 13.0896 42.8947 13.1104 42.8828 13.1257C42.8577 13.1578 42.8271 13.1903 42.7924 13.2216L42.7747 13.2021C42.7974 13.1901 42.8116 13.1796 42.8156 13.1766L42.8164 13.176C42.8321 13.1647 42.8444 13.1538 42.8527 13.1457ZM42.7747 13.2021C42.7483 13.2161 42.7103 13.232 42.664 13.2401C42.6133 13.2489 42.5067 13.2558 42.3987 13.1869C42.2836 13.1134 42.2432 13.0035 42.2314 12.9356C42.2159 12.8462 42.2378 12.7739 42.2462 12.7505L42.5415 12.9429L42.7747 13.2021Z" fill="#333333"/>
<path fill-rule="evenodd" clip-rule="evenodd" d="M48.4442 35.2151C48.4442 37.1143 47.2325 38.6541 45.7385 38.6541C44.2445 38.6541 43.0327 37.1143 43.0327 35.2151C43.0327 33.3167 44.2445 31.7769 45.7385 31.7769C47.2325 31.7769 48.4442 33.3167 48.4442 35.2151Z" fill="#FCE9E3"/>
<path fill-rule="evenodd" clip-rule="evenodd" d="M20.5738 35.2151C20.5738 37.1143 19.362 38.6541 17.868 38.6541C16.374 38.6541 15.1622 37.1143 15.1622 35.2151C15.1622 33.3167 16.374 31.7769 17.868 31.7769C19.362 31.7769 20.5738 33.3167 20.5738 35.2151Z" fill="#FCE9E3"/>
<path fill-rule="evenodd" clip-rule="evenodd" d="M43.3392 20.9417L38.0436 18.8857L31.8034 23.0834L25.5631 18.8857L20.2675 20.9417L17.0311 32.9813C17.0311 32.9813 18.8002 42.1332 19.7563 43.2828C19.7563 43.2828 22.3937 48.0071 30.0926 50.1368C30.3108 50.1973 31.1446 50.2838 31.7141 50.3168V50.3309C31.7429 50.3281 31.7731 50.3253 31.8034 50.3225C31.8343 50.3253 31.8638 50.3281 31.8926 50.3309V50.3168C32.4622 50.2838 33.2959 50.1973 33.5141 50.1368C41.213 48.0071 43.8504 43.2828 43.8504 43.2828C44.8066 42.1332 46.5756 32.9813 46.5756 32.9813L43.3392 20.9417Z" fill="#FFF3EE"/>
<path fill-rule="evenodd" clip-rule="evenodd" d="M21.5595 35.4971H20.8484C20.8484 37.8378 22.7989 39.7425 25.1957 39.7425C27.5926 39.7425 29.5431 37.8378 29.5431 35.4971H28.8344C28.8344 37.4982 27.2441 39.0451 25.1957 39.0451C23.1473 39.0451 21.5595 37.4982 21.5595 35.4971Z" fill="black"/>
<path fill-rule="evenodd" clip-rule="evenodd" d="M20.8484 35.4972H21.5595C21.5595 33.4968 23.1643 31.9364 25.2127 31.9364C27.2611 31.9364 28.8344 33.497 28.8344 35.4974L29.5431 35.4972C29.5431 33.1565 27.5926 31.2524 25.1957 31.2524C22.7989 31.2524 20.8484 33.1565 20.8484 35.4972Z" fill="black"/>
<path fill-rule="evenodd" clip-rule="evenodd" d="M36.476 34.5153C36.4738 35.3155 37.1628 35.9658 38.0153 35.9673C38.8671 35.9694 39.559 35.3225 39.5612 34.523C39.5633 33.7229 38.875 33.0739 38.0225 33.0718C37.1708 33.0697 36.4781 33.7151 36.476 34.5153Z" fill="#424242"/>
<g opacity="0.18743">
<mask id="mask0_1789_27112" style="mask-type:alpha" maskUnits="userSpaceOnUse" x="36" y="32" width="2" height="3">
<path fill-rule="evenodd" clip-rule="evenodd" d="M36.3238 32.8638L37.8545 32.8673L37.8509 34.3031L36.3202 34.2996" fill="white"/>
</mask>
<g mask="url(#mask0_1789_27112)">
<path fill-rule="evenodd" clip-rule="evenodd" d="M37.8544 32.8672L37.8508 34.303L36.3201 34.2995C36.3287 33.5084 37.012 32.8721 37.8544 32.8672Z" fill="white"/>
</g>
</g>
<path fill-rule="evenodd" clip-rule="evenodd" d="M37.428 34.4038C37.4273 34.6471 37.6375 34.8454 37.896 34.8461C38.1566 34.8468 38.3669 34.6499 38.3676 34.4059C38.3683 34.1626 38.1588 33.9651 37.8989 33.9644C37.6389 33.9637 37.4287 34.1605 37.428 34.4038Z" fill="white"/>
<path fill-rule="evenodd" clip-rule="evenodd" d="M36.1008 29.9518C35.8301 30.354 36.7438 30.0115 38.1651 29.9715C38.3213 29.9665 38.4624 29.9736 38.592 29.9876V29.2444C38.3775 29.1931 36.571 29.2529 36.1008 29.9518Z" fill="#424242"/>
<path fill-rule="evenodd" clip-rule="evenodd" d="M40.6799 30.2677C39.7706 29.3318 38.5941 29.2446 38.5941 29.2446H38.5919V29.9878C39.389 30.0729 39.7252 30.4596 40.2738 30.6467C40.9118 30.8653 40.6799 30.2677 40.6799 30.2677Z" fill="#424242"/>
<path fill-rule="evenodd" clip-rule="evenodd" d="M27.1044 34.5153C27.1065 35.3155 26.4175 35.9658 25.565 35.9673C24.7132 35.9694 24.0213 35.3225 24.0192 34.523C24.017 33.7229 24.7053 33.0739 25.5578 33.0718C26.4096 33.0697 27.1022 33.7151 27.1044 34.5153Z" fill="#424242"/>
<g opacity="0.18">
<mask id="mask1_1789_27112" style="mask-type:alpha" maskUnits="userSpaceOnUse" x="25" y="32" width="3" height="3">
<path fill-rule="evenodd" clip-rule="evenodd" d="M27.0501 32.8638L27.0545 34.2996L25.5245 34.3031L25.5201 32.8673" fill="white"/>
</mask>
<g mask="url(#mask1_1789_27112)">
<path fill-rule="evenodd" clip-rule="evenodd" d="M25.5204 32.8672L25.524 34.303L27.054 34.2995C27.0453 33.5084 26.3628 32.8721 25.5204 32.8672Z" fill="white"/>
</g>
</g>
<path fill-rule="evenodd" clip-rule="evenodd" d="M26.1524 34.4038C26.1531 34.6471 25.9429 34.8454 25.6844 34.8461C25.4245 34.8468 25.2135 34.6499 25.2128 34.4059C25.2121 34.1626 25.4216 33.9651 25.6815 33.9644C25.9414 33.9637 26.1517 34.1605 26.1524 34.4038Z" fill="white"/>
<path fill-rule="evenodd" clip-rule="evenodd" d="M27.4795 29.9518C27.7502 30.354 26.8365 30.0115 25.4152 29.9715C25.259 29.9665 25.1179 29.9736 24.9883 29.9876V29.2444C25.2028 29.1931 27.0093 29.2529 27.4795 29.9518Z" fill="#424242"/>
<path fill-rule="evenodd" clip-rule="evenodd" d="M22.9005 30.2677C23.8098 29.3318 24.9863 29.2446 24.9863 29.2446H24.9885V29.9878C24.1914 30.0729 23.8552 30.4596 23.3066 30.6467C22.6694 30.8653 22.9005 30.2677 22.9005 30.2677Z" fill="#424242"/>
<path fill-rule="evenodd" clip-rule="evenodd" d="M16.5451 31.4513C16.5451 31.4513 16.6935 34.0929 17.3602 33.9846C17.3602 33.9846 17.6568 34.3102 17.7677 33.8039C17.8793 33.2977 18.6929 30.6237 19.4705 29.356C18.5446 30.1111 17.5603 30.7974 16.53 31.4105C16.5351 31.4238 16.5401 31.4372 16.5451 31.4513Z" fill="#424242"/>
<path fill-rule="evenodd" clip-rule="evenodd" d="M16.4869 31.4516C16.5222 32.0401 16.543 34.1755 17.4999 34.1361C17.9305 34.1185 18.0003 33.1735 18.0997 32.8578C18.4719 31.6731 18.8845 30.4616 19.521 29.3851C19.5555 29.326 19.4785 29.2761 19.4295 29.3162C18.5 30.0643 17.5258 30.7443 16.5013 31.3623C16.4804 31.375 16.4653 31.4024 16.4739 31.4263C16.479 31.4389 16.484 31.453 16.489 31.4664C16.5142 31.5346 16.6266 31.505 16.6014 31.4368C16.587 31.3982 18.3416 30.2935 18.5173 30.1642C18.7441 29.9982 18.9622 29.8218 19.1883 29.6544C19.3294 29.5503 19.3626 29.3464 19.2538 29.62C19.2092 29.731 19.1401 29.8379 19.0868 29.9462C18.6253 30.8961 18.2746 31.903 17.9622 32.9071C17.8837 33.1602 17.8527 33.5652 17.7123 33.7888C17.4459 34.2121 17.0456 33.7353 16.9297 33.4218C16.7014 32.8051 16.6417 32.1027 16.6035 31.4516C16.5992 31.3785 16.4826 31.3785 16.4869 31.4516Z" fill="#3F3F3F"/>
<path fill-rule="evenodd" clip-rule="evenodd" d="M45.8979 17.3719C42.7846 15.0558 41.8954 12.0148 41.8954 12.0148C41.8954 12.0148 41.7471 11.9431 41.5987 12.2686C41.4504 12.5949 40.1163 14.1867 39.2271 14.4764C39.2271 14.4764 39.8196 12.45 39.672 11.8699C39.672 11.8699 39.4495 11.7258 39.1896 12.0148C38.9304 12.3052 35.0763 13.1011 30.3322 12.63C30.3322 12.63 21.5115 11.4361 19.9181 18.2402C19.9181 18.2402 16.1741 18.892 15.8415 23.4884C15.8415 23.4884 15.3641 28.4025 16.5305 31.4105C17.5608 30.7974 18.5443 30.1111 19.471 29.3559C19.4717 29.3545 19.4724 29.3531 19.4731 29.3517C20.2515 28.0854 23.5131 24.3933 23.0681 21.9689C23.0681 21.9689 28.4047 26.348 40.5612 25.4789C40.5612 25.4789 40.932 25.0451 43.6371 28.3027C43.6371 28.3027 44.0345 28.8124 44.4463 29.4888C45.3269 30.1941 46.2586 30.8388 47.2306 31.4161C47.3134 31.0357 47.4005 30.5941 47.4919 30.0759C47.4919 30.0759 49.0111 19.6887 45.8979 17.3719Z" fill="#868686"/>
<path fill-rule="evenodd" clip-rule="evenodd" d="M46.3456 16.7702C47.3461 17.5147 47.8859 18.8227 48.1917 20.1681C48.5045 21.5442 48.6076 23.1216 48.6124 24.5903C48.6172 26.0649 48.5226 27.461 48.4275 28.4861C48.3798 28.9994 48.3318 29.4217 48.2955 29.7166C48.2774 29.8641 48.2622 29.9798 48.2515 30.0593L48.2389 30.1507L48.2354 30.175L48.2342 30.1835C48.2342 30.1837 48.234 30.1845 47.4919 30.0759C47.4919 30.0759 49.0111 19.6887 45.8979 17.3719C43.7357 15.7633 42.6462 13.8051 42.1824 12.7588C42.171 12.7332 42.16 12.7081 42.1494 12.6836C42.1179 12.6109 42.0897 12.5431 42.0645 12.4808C42.0646 12.481 42.0644 12.4806 42.0645 12.4808C41.9459 12.1874 41.8954 12.0148 41.8954 12.0148L42.2219 11.3396L42.5218 11.4846L42.6147 11.8023L42.6151 11.8038L42.6208 11.8219C42.6262 11.8389 42.6352 11.8667 42.6483 11.9043C42.6744 11.9796 42.7164 12.0943 42.7767 12.2411C42.8974 12.535 43.0911 12.956 43.3772 13.4473C43.9501 14.4309 44.888 15.6858 46.3456 16.7702ZM41.5987 12.2686C41.6471 12.1624 41.6955 12.0985 41.7387 12.0606C41.828 11.9822 41.8954 12.0148 41.8954 12.0148C42.2219 11.3396 42.2212 11.3392 42.2204 11.3389L42.219 11.3382L42.2161 11.3368L42.2101 11.334L42.1976 11.3284C42.189 11.3246 42.18 11.3208 42.1705 11.317C42.1515 11.3095 42.1305 11.302 42.1075 11.295C42.0616 11.281 42.0071 11.2687 41.9452 11.2624C41.8174 11.2495 41.6697 11.2637 41.5186 11.3255C41.2166 11.4491 41.0316 11.7044 40.9162 11.9577C40.918 11.9538 40.9155 11.9576 40.9084 11.9683C40.8879 11.9988 40.8272 12.0893 40.7051 12.2417C40.6219 12.3458 40.5227 12.463 40.4126 12.5858C40.4453 12.321 40.4719 11.972 40.3989 11.685L40.3264 11.4002L40.0798 11.2405L39.672 11.8699C40.0798 11.2405 40.0803 11.2408 40.0798 11.2405L40.078 11.2393L40.0762 11.2382L40.0724 11.2358L40.0644 11.2308L40.0467 11.2202C40.0341 11.2128 40.0198 11.2049 40.0039 11.1968C39.9723 11.1806 39.9335 11.163 39.8879 11.1465C39.7972 11.1138 39.6743 11.0838 39.5275 11.084C39.2407 11.0843 38.96 11.1978 38.7219 11.4213C38.7109 11.4255 38.6977 11.4303 38.6822 11.4357C38.5781 11.472 38.4167 11.518 38.196 11.5686C37.7576 11.669 37.1323 11.7768 36.36 11.8625C34.8186 12.0336 32.7262 12.1132 30.4171 11.8847L30.3981 11.8824C30.3781 11.8799 30.3499 11.8766 30.314 11.8727C30.2421 11.8648 30.1393 11.8546 30.0093 11.8443C29.7495 11.8238 29.3805 11.8027 28.934 11.7998C28.0443 11.7939 26.8305 11.8597 25.5548 12.1526C23.1047 12.7151 20.3074 14.1568 19.303 17.6287C19.2302 17.6522 19.1507 17.6795 19.0657 17.7112C18.6573 17.8636 18.1114 18.1206 17.5528 18.542C16.4161 19.3995 15.2789 20.902 15.094 23.4259L15.0933 23.4336L15.0892 23.479C15.0858 23.5182 15.081 23.5751 15.0754 23.6479C15.0642 23.7937 15.0497 24.0035 15.0361 24.2641C15.0089 24.7846 14.9851 25.5106 14.9987 26.3338C15.0255 27.9571 15.1979 30.0484 15.8312 31.6816L16.1519 32.5085L16.914 32.055C17.9754 31.4234 18.9892 30.7161 19.9448 29.9373L20.0668 29.8379L20.1268 29.7208C20.27 29.4916 20.503 29.1723 20.8043 28.7591C20.8766 28.66 20.9528 28.5555 21.0326 28.4456C21.443 27.8805 21.9233 27.2062 22.367 26.4894C22.8092 25.7752 23.2288 24.9973 23.5089 24.222C23.6152 23.928 23.7049 23.6247 23.767 23.3178C24.4955 23.7329 25.5697 24.2606 27.011 24.7587C29.9547 25.7759 34.4158 26.6646 40.5723 26.23C40.5947 26.2436 40.623 26.2617 40.6574 26.2855C40.9999 26.523 41.7132 27.1608 43.0516 28.7716L43.0592 28.7815C43.0694 28.7949 43.085 28.8154 43.1052 28.8424C43.1457 28.8965 43.2047 28.9764 43.2762 29.0769C43.4196 29.2786 43.6115 29.5598 43.8057 29.8789L43.8744 29.9917L43.9775 30.0742C44.8854 30.8014 45.8458 31.466 46.8476 32.061L47.7421 32.5922L47.9634 31.5756C48.0486 31.1843 48.1376 30.7329 48.2305 30.2063L48.2324 30.1954L48.2342 30.1835L47.4919 30.0759C47.4571 30.2736 47.4228 30.4601 47.3892 30.6363C47.3347 30.9221 47.2818 31.1808 47.2306 31.4161C47.0023 31.2805 46.7763 31.1413 46.5526 30.9983C45.8238 30.5327 45.1201 30.0285 44.4463 29.4888C44.0345 28.8124 43.6371 28.3027 43.6371 28.3027C40.932 25.0451 40.5612 25.4789 40.5612 25.4789C31.0798 26.1567 25.7471 23.642 23.8592 22.5025C23.3265 22.181 23.0681 21.9689 23.0681 21.9689C23.1218 22.2618 23.1215 22.5731 23.078 22.8964C22.8348 24.7035 21.2432 26.885 20.2075 28.3045C19.8943 28.7337 19.632 29.0933 19.4731 29.3517L19.471 29.3559C18.7413 29.9506 17.9764 30.5025 17.1811 31.0096C16.9664 31.1465 16.7495 31.2802 16.5305 31.4105C16.4403 31.1777 16.3599 30.9336 16.2883 30.6812C15.4351 27.6715 15.8415 23.4884 15.8415 23.4884C16.1741 18.892 19.9181 18.2402 19.9181 18.2402C21.5115 11.4361 30.3322 12.63 30.3322 12.63C34.5064 13.0445 37.9917 12.4781 38.9453 12.1382C39.0755 12.0918 39.1585 12.0497 39.1896 12.0148C39.1988 12.0045 39.208 11.9949 39.2171 11.9857C39.465 11.7358 39.672 11.8699 39.672 11.8699C39.7055 12.0014 39.7009 12.2073 39.6738 12.447C39.6737 12.448 39.6736 12.449 39.6735 12.45C39.6693 12.4868 39.6646 12.5245 39.6594 12.5628C39.6574 12.5771 39.6554 12.5916 39.6533 12.6061C39.6142 12.8803 39.5524 13.1842 39.4879 13.4659C39.3626 14.013 39.2271 14.4764 39.2271 14.4764C39.5102 14.3842 39.8383 14.16 40.159 13.8866C40.6146 13.4983 41.055 13.0107 41.3293 12.6617C41.4684 12.4847 41.5647 12.3434 41.5987 12.2686ZM38.7659 11.403C38.7652 11.4034 38.764 11.4039 38.7625 11.4047C38.7721 11.3992 38.7744 11.3988 38.7659 11.403Z" fill="#333333"/>
<path fill-rule="evenodd" clip-rule="evenodd" d="M45.2678 31.2698C45.2678 31.2698 45.7372 33.2336 46.4169 33.6949C46.4169 33.6949 46.7424 33.666 47.2305 31.416C46.2585 30.8388 45.3268 30.194 44.4463 29.4888C44.7782 30.0344 45.1195 30.6883 45.2678 31.2698Z" fill="#424242"/>
<path fill-rule="evenodd" clip-rule="evenodd" d="M44.3959 29.5176C44.8625 30.3023 45.1274 31.0969 45.4018 31.9483C45.5054 32.269 45.918 33.7216 46.3817 33.7399C46.9462 33.761 47.2241 31.7135 47.2867 31.4315C47.2925 31.4069 47.2831 31.3809 47.2601 31.3676C46.2924 30.7854 45.3708 30.1476 44.4874 29.4487C44.4298 29.4037 44.347 29.4832 44.4053 29.5296C44.8884 29.9121 45.3816 30.2805 45.8914 30.6293C46.1549 30.8093 46.4796 30.9633 46.7186 31.1714C47.1168 31.518 47.1226 31.6762 46.9922 32.1733C46.939 32.3765 46.6927 33.6387 46.404 33.6394C46.2406 33.6401 45.9245 32.9531 45.8669 32.8329C45.6862 32.4553 45.5508 32.0552 45.4327 31.6551C45.203 30.874 44.9186 30.1701 44.496 29.4607C44.4586 29.3974 44.3585 29.4544 44.3959 29.5176Z" fill="#3F3F3F"/>
<path fill-rule="evenodd" clip-rule="evenodd" d="M24.4456 19.9104C24.4456 19.9104 30.0025 25.2999 40.2438 23.1666L34.3722 22.2329C34.3722 22.2329 40.9264 22.6329 41.7457 21.6992C41.7457 21.6992 32.5974 22.7665 25.4053 17.4326C25.4053 17.4326 25.7696 20.6325 30.1393 21.5656C30.1393 21.5656 29.6346 21.7772 24.4456 19.9104Z" fill="#A0A0A0"/>
<path fill-rule="evenodd" clip-rule="evenodd" d="M38.1217 40.9526C37.6529 41.5419 37.1432 41.6396 37.1432 41.6396C36.4066 41.8428 35.5088 41.1228 35.5088 41.1228C35.5088 41.1228 34.7989 40.5469 33.7937 40.2657C32.9204 40.0217 32.3163 40.4633 32.1723 40.5835C32.029 40.4633 31.4242 40.0217 30.5509 40.2657C29.5465 40.5469 28.8365 41.1228 28.8365 41.1228C28.8365 41.1228 27.938 41.8428 27.2014 41.6396C27.2014 41.6396 26.6924 41.5419 26.2237 40.9526C26.2237 40.9526 26.1027 40.8486 26.0624 40.966C26.0624 40.966 26.2237 42.2485 27.5031 43.0395C27.5031 43.0395 29.0641 44.0534 31.1809 42.9348C31.1809 42.9348 31.8584 42.5466 32.1723 42.046C32.4862 42.5466 33.1637 42.9348 33.1637 42.9348C35.2813 44.0534 36.8422 43.0395 36.8422 43.0395C38.1217 42.2485 38.2822 40.966 38.2822 40.966C38.2419 40.8486 38.1217 40.9526 38.1217 40.9526Z" fill="#424242"/>
</svg>
