<svg width="64" height="65" viewBox="0 0 64 65" fill="none" xmlns="http://www.w3.org/2000/svg">
<rect y="0.50293" width="64" height="64" rx="32" fill="#EEEEEE"/>
<path d="M29.4808 47.5779C39.1108 47.5779 46.9108 39.7329 46.9108 30.0579C46.9108 20.3829 39.1108 12.5529 29.4808 12.5529C19.8508 12.5529 12.0508 20.3979 12.0508 30.0729C12.0508 39.7479 19.8508 47.5929 29.4808 47.5929V47.5779Z" fill="white"/>
<path d="M29.48 48.6279C19.295 48.6279 11 40.3029 11 30.0579C11 19.8129 19.28 11.5029 29.48 11.5029C39.68 11.5029 47.96 19.8279 47.96 30.0729C47.96 40.3179 39.665 48.6429 29.48 48.6429V48.6279ZM29.48 13.6029C20.45 13.6029 13.1 20.9829 13.1 30.0729C13.1 39.1629 20.45 46.5429 29.48 46.5429C38.51 46.5429 45.86 39.1629 45.86 30.0729C45.86 20.9829 38.495 13.6029 29.48 13.6029Z" fill="#333333"/>
<path d="M29.5419 48.8982C23.7969 48.8982 19.2969 40.9182 19.2969 30.7182C19.2969 20.5182 23.7969 12.5532 29.5419 12.5532C35.2869 12.5532 39.7869 20.5332 39.7869 30.7182C39.7869 40.9032 35.2869 48.8982 29.5419 48.8982ZM29.5419 14.6532C25.1319 14.6532 21.3969 22.0182 21.3969 30.7182C21.3969 39.4182 25.1319 46.7832 29.5419 46.7832C33.9519 46.7832 37.6869 39.4182 37.6869 30.7182C37.6869 22.0182 33.9519 14.6532 29.5419 14.6532Z" fill="#333333"/>
<path d="M46.8666 29.2932H11.2266V31.3932H46.8666V29.2932Z" fill="#333333"/>
<path d="M30.7855 13.7083H28.6855V47.8183H30.7855V13.7083Z" fill="#333333"/>
<path fill-rule="evenodd" clip-rule="evenodd" d="M44.1503 42.4779C46.6103 37.2579 49.8353 38.3529 47.0903 34.3029C46.4153 33.3129 45.1403 30.9729 40.6253 30.9729C34.8203 30.9729 28.2203 39.6579 39.2003 52.1379C43.8953 41.6679 42.5003 46.0029 44.1653 42.4929L44.1503 42.4779Z" fill="white"/>
<path fill-rule="evenodd" clip-rule="evenodd" d="M51.1396 38.233C48.6946 36.028 45.9796 37.648 45.2596 37.993C44.9896 37.228 44.1496 34.168 40.8646 34.048C36.9496 33.913 33.3646 40.618 40.8196 49.078C52.0096 48.208 54.0646 40.873 51.1546 38.233H51.1396Z" fill="#1769FF"/>
<path d="M40.8048 50.1279C40.5048 50.1279 40.2198 49.9929 40.0098 49.7679C33.7998 42.7029 35.4798 37.5879 36.1398 36.1929C37.0998 34.1529 38.9298 32.9229 40.8948 32.9979C43.1298 33.0729 44.7948 34.2729 45.8298 36.5679C48.1548 35.6529 50.1798 35.9379 51.8448 37.4529C53.3148 38.7879 53.7798 40.9479 53.0298 43.1079C51.6948 47.0079 47.1648 49.6329 40.8798 50.1129C40.8498 50.1129 40.8198 50.1129 40.8048 50.1129V50.1279ZM40.7298 35.0979C39.6498 35.0979 38.6298 35.8479 38.0448 37.0929C36.9948 39.3129 37.3098 43.3029 41.2548 47.9829C48.8298 47.2329 50.6598 43.5579 51.0498 42.4329C51.5148 41.0829 51.2748 39.7629 50.4348 39.0129C48.8748 37.6029 47.1948 38.1879 45.8898 38.8629L45.7248 38.9529C45.4548 39.0879 45.1398 39.1029 44.8698 38.9829C44.5998 38.8779 44.3748 38.6529 44.2698 38.3679L44.2098 38.1879C43.7298 36.7929 42.9198 35.1879 40.8348 35.1129C40.8048 35.1129 40.7748 35.1129 40.7448 35.1129L40.7298 35.0979Z" fill="#333333"/>
</svg>
