<svg width="64" height="65" viewBox="0 0 64 65" fill="none" xmlns="http://www.w3.org/2000/svg">
<rect y="0.50293" width="64" height="64" rx="32" fill="#EEEEEE"/>
<path fill-rule="evenodd" clip-rule="evenodd" d="M20.5779 44.0214C16.5616 40.9525 14 36.2985 14 31.0884C14 21.847 22.0589 14.3555 32 14.3555C41.9411 14.3555 50 21.847 50 31.0884C50 40.3297 41.9411 47.8213 32 47.8213C30.643 47.8213 29.321 47.6817 28.0498 47.4171L19.0344 50.6305C18.7956 50.7157 18.5559 50.5077 18.6277 50.2776L20.5779 44.0214Z" fill="white"/>
<path d="M20.5779 44.0214L21.0029 43.4652L21.3918 43.7624L21.2462 44.2297L20.5779 44.0214ZM28.0498 47.4171L27.8148 46.7577L28 46.6917L28.1925 46.7318L28.0498 47.4171ZM19.0344 50.6305L19.2694 51.2899H19.2694L19.0344 50.6305ZM18.6277 50.2776L17.9594 50.0693V50.0693L18.6277 50.2776ZM14.7 31.0884C14.7 36.0599 17.1429 40.5158 21.0029 43.4652L20.1529 44.5776C15.9802 41.3893 13.3 36.5371 13.3 31.0884H14.7ZM32 15.0555C22.3965 15.0555 14.7 22.2809 14.7 31.0884H13.3C13.3 21.4132 21.7213 13.6555 32 13.6555V15.0555ZM49.3 31.0884C49.3 22.2809 41.6035 15.0555 32 15.0555V13.6555C42.2787 13.6555 50.7 21.4132 50.7 31.0884H49.3ZM32 47.1213C41.6035 47.1213 49.3 39.8958 49.3 31.0884H50.7C50.7 40.7635 42.2787 48.5213 32 48.5213V47.1213ZM28.1925 46.7318C29.4169 46.9866 30.6911 47.1213 32 47.1213V48.5213C30.5949 48.5213 29.2251 48.3767 27.9072 48.1024L28.1925 46.7318ZM18.7994 49.9712L27.8148 46.7577L28.2849 48.0764L19.2694 51.2899L18.7994 49.9712ZM19.2959 50.4859C19.3531 50.3026 19.2753 50.1321 19.1733 50.0436C19.0746 49.9579 18.9315 49.9241 18.7994 49.9712L19.2694 51.2899C18.8985 51.4221 18.5162 51.3269 18.2558 51.101C17.9923 50.8723 17.8305 50.4827 17.9594 50.0693L19.2959 50.4859ZM21.2462 44.2297L19.2959 50.4859L17.9594 50.0693L19.9096 43.813L21.2462 44.2297Z" fill="#333333"/>
<circle cx="22.6328" cy="31.8086" r="2.3375" fill="#4A95FF" stroke="#333333" stroke-width="1.3"/>
<circle cx="31.6367" cy="31.8086" r="2.3375" fill="#4A95FF" stroke="#333333" stroke-width="1.3"/>
<circle cx="40.6416" cy="31.8086" r="2.3375" fill="#4A95FF" stroke="#333333" stroke-width="1.3"/>
</svg>
