<svg width="12" height="13" viewBox="0 0 12 13" fill="none" xmlns="http://www.w3.org/2000/svg">
<path fill-rule="evenodd" clip-rule="evenodd" d="M11.5138 4.30537H8.00723C7.79753 4.30651 7.61071 4.17387 7.54368 3.97626L6.46355 0.707427C6.39573 0.510343 6.20945 0.37793 6 0.37793C5.79055 0.37793 5.60427 0.510343 5.53645 0.707427L4.45632 3.97626C4.38929 4.17387 4.20247 4.30651 3.99277 4.30537H0.486226C0.277882 4.30072 0.0907678 4.43153 0.0246227 4.62807C-0.0415225 4.82462 0.0287147 5.04109 0.197895 5.16211L3.0435 7.19546C3.21163 7.31421 3.28261 7.52787 3.21872 7.72287L2.13415 11.0063C2.08754 11.1527 2.11462 11.3125 2.20692 11.4357C2.29922 11.5589 2.44547 11.6304 2.59991 11.6279C2.70291 11.6274 2.80309 11.5944 2.88603 11.5337L5.71167 9.51489C5.88411 9.39226 6.11589 9.39226 6.28833 9.51489L9.11397 11.5337C9.19691 11.5944 9.29709 11.6274 9.40009 11.6279C9.55453 11.6304 9.70078 11.5589 9.79308 11.4357C9.88538 11.3125 9.91246 11.1527 9.86585 11.0063L8.78128 7.72287C8.71739 7.52787 8.78837 7.31421 8.9565 7.19546L11.8021 5.16211C11.9713 5.04109 12.0415 4.82462 11.9754 4.62807C11.9092 4.43153 11.7221 4.30072 11.5138 4.30537Z" fill="#FDBA39"/>
</svg>
