<svg width="44" height="44" viewBox="0 0 44 44" xmlns="http://www.w3.org/2000/svg">
    <path d="m19.364 12.033.178.042 5.577 1.572 5.563-.897a2 2 0 0 1 2.296 1.68l.017.148.005.147v14.308a2 2 0 0 1-1.523 1.942l-.159.033-6 .967a2 2 0 0 1-.691-.01l-.17-.04L19 30.386l-5.456 1.539a2 2 0 0 1-2.522-1.631l-.016-.148L11 30V15.69a2 2 0 0 1 1.308-1.876l.15-.048 6-1.691a2 2 0 0 1 .906-.042zM17 14.563l-4 1.128V30l4-1.128V14.563zm8 1.128L19 14v14.308L25 30V15.69zm6-.966-4 .643v14.31l4-.645V14.725z" fill="#333" fill-rule="nonzero"/>
</svg>
