<svg width="44" height="44" viewBox="0 0 44 44" xmlns="http://www.w3.org/2000/svg">
    <path d="m27.107 12.001.216.006.286.019c3.448.296 6.142 3.166 6.375 6.611l.012.242.004.243a6.46 6.46 0 0 1-1.589 4.233l-.196.217-8.063 8.497-.111.109-.116.104-.12.1a2.953 2.953 0 0 1-3.816-.17l-.142-.138-8.107-8.509C10.604 22.367 10 20.79 10 19.122c0-3.739 2.908-6.925 6.632-7.113 1.929-.097 3.721.642 5.055 1.883l.197.19.115.119.116-.12c1.178-1.18 2.755-1.955 4.481-2.066l.307-.013.204-.001zm-.054 2.042C24.267 14.028 22 16.449 22 19.122c0-2.741-2.385-5.218-5.269-5.073-2.703.137-4.73 2.47-4.73 5.073 0 1.04.337 2.04 1.014 2.84l.162.182 8.105 8.505.093.086a.984.984 0 0 0 1.112.093l.113-.075.117-.105 8.062-8.497.163-.181A4.391 4.391 0 0 0 32 19.122c0-2.531-1.916-4.807-4.508-5.056l-.224-.017-.215-.006z" fill="#333" fill-rule="nonzero"/>
</svg>
