<svg width="26" height="24" xmlns="http://www.w3.org/2000/svg"><path d="M18.536 2.25l.297.008a6.138 6.138 0 014.186 1.955 6.38 6.38 0 011.731 4.346 5.553 5.553 0 01-1.55 3.833h0l-8.946 9.379a1.806 1.806 0 01-1.267.527c-.462 0-.914-.18-1.254-.535h0l-8.982-9.379C1.752 11.337 1.25 9.978 1.25 8.56a6.38 6.38 0 011.731-4.346 6.136 6.136 0 014.185-1.955 6.377 6.377 0 014.62 1.628c.483.439.894.95 1.213 1.517a6.067 6.067 0 011.214-1.517 6.379 6.379 0 014.62-1.628z" fill="#EF3E43" stroke="#FFF" stroke-width="1.5" fill-rule="evenodd" stroke-linecap="round" stroke-linejoin="round"/></svg>