<svg width="152" height="38" viewBox="0 0 152 38" fill="none" xmlns="http://www.w3.org/2000/svg">
<g clip-path="url(#clip0_1213_48085)">
<path d="M32.2447 12.0841C31.8244 11.669 31.6133 11.1538 31.6133 10.5348C31.6133 9.91584 31.8244 9.39876 32.2447 8.98359C32.6651 8.56842 33.1937 8.36084 33.8306 8.36084C34.4676 8.36084 34.9944 8.56842 35.4166 8.98359C35.8369 9.39876 36.048 9.91584 36.048 10.5348C36.048 11.1538 35.8369 11.6709 35.4166 12.086C34.9962 12.5012 34.4676 12.7088 33.8306 12.7088C33.1937 12.7088 32.6669 12.5012 32.2447 12.086V12.0841ZM35.6093 14.4563V29.14H32.0006V14.4563H35.6093Z" fill="black"/>
<path d="M51.2056 15.9024C52.2537 17.0064 52.7787 18.5482 52.7787 20.5278V29.1425H49.17V21.0317C49.17 19.8654 48.8873 18.969 48.3201 18.3406C47.7529 17.7141 46.9802 17.3989 46 17.3989C45.0198 17.3989 44.2158 17.7122 43.6413 18.3406C43.0649 18.9671 42.7767 19.8654 42.7767 21.0317V29.1425H39.168V14.4569H42.7767V16.2855C43.2576 15.6496 43.8725 15.1495 44.6196 14.7871C45.3667 14.4248 46.1872 14.2437 47.0811 14.2437C48.7827 14.2437 50.1575 14.7966 51.2056 15.9006V15.9024Z" fill="black"/>
<path d="M60.4102 17.5056V24.6088C60.4102 25.1032 60.5259 25.4618 60.759 25.6826C60.9903 25.9034 61.3812 26.0147 61.9319 26.0147H63.6078V29.1417H61.339C58.2975 29.1417 56.7758 27.6225 56.7758 24.5824V17.5056H55.0742V14.4579H56.7758V10.8252H60.4102V14.456H63.6078V17.5037H60.4102V17.5056Z" fill="black"/>
<path d="M79.3839 22.9132H68.9432C69.0295 23.9737 69.3893 24.8041 70.0262 25.4042C70.6613 26.0043 71.4451 26.3062 72.3721 26.3062C73.712 26.3062 74.6665 25.7137 75.2337 24.5304H79.1269C78.7139 25.9439 77.9228 27.1064 76.7554 28.016C75.5861 28.9256 74.1507 29.3804 72.4491 29.3804C71.0743 29.3804 69.8408 29.0671 68.7486 28.4387C67.6565 27.8122 66.8066 26.9233 66.1972 25.7741C65.586 24.6248 65.2812 23.3 65.2812 21.7979C65.2812 20.2957 65.5823 18.9445 66.1843 17.7953C66.7864 16.646 67.6289 15.7628 68.7101 15.1458C69.7931 14.5268 71.0394 14.2173 72.4491 14.2173C73.8589 14.2173 75.0226 14.5173 76.0964 15.1193C77.1702 15.7194 78.0036 16.5724 78.5965 17.6764C79.1894 18.7804 79.4867 20.0485 79.4867 21.479C79.4867 22.0092 79.4518 22.4867 79.3839 22.9094V22.9132ZM75.7495 20.4222C75.733 19.4673 75.3971 18.7049 74.7436 18.1293C74.0901 17.5556 73.2917 17.2688 72.3464 17.2688C71.4524 17.2688 70.6998 17.5481 70.0904 18.1029C69.4792 18.6596 69.1066 19.4333 68.9689 20.4222H75.7495Z" fill="black"/>
<path d="M87.5451 14.908C88.2922 14.4664 89.1475 14.2456 90.1112 14.2456V18.1425H89.1567C88.0223 18.1425 87.167 18.4162 86.5924 18.9634C86.0161 19.5107 85.7279 20.4656 85.7279 21.8262V29.1407H82.1191V14.457H85.7279V16.7366C86.1923 15.9591 86.798 15.3496 87.5451 14.908Z" fill="black"/>
<path d="M98.0629 14.8943C98.8797 14.4433 99.8122 14.2188 100.86 14.2188C102.081 14.2188 103.184 14.5282 104.174 15.1472C105.161 15.7662 105.943 16.6456 106.519 17.7835C107.096 18.9234 107.384 20.2444 107.384 21.7465C107.384 23.2487 107.096 24.5791 106.519 25.7359C105.943 26.8927 105.161 27.7891 104.174 28.427C103.186 29.0629 102.081 29.3818 100.86 29.3818C99.8122 29.3818 98.8889 29.161 98.0886 28.7195C97.2901 28.2779 96.6403 27.7212 96.1429 27.0493V36.1397H92.5342V14.4565H96.1429V16.5777C96.6073 15.9058 97.2461 15.3454 98.0629 14.8943ZM103.168 19.4536C102.815 18.8082 102.351 18.3176 101.776 17.9836C101.2 17.6477 100.578 17.4797 99.9077 17.4797C99.2377 17.4797 98.6393 17.6514 98.0647 17.9968C97.4884 18.3421 97.024 18.8403 96.6734 19.4952C96.321 20.15 96.1447 20.9181 96.1447 21.8012C96.1447 22.6844 96.321 23.4544 96.6734 24.1073C97.0258 24.7603 97.4902 25.2603 98.0647 25.6057C98.6411 25.951 99.2542 26.1228 99.9077 26.1228C100.561 26.1228 101.2 25.9454 101.776 25.5925C102.353 25.2396 102.815 24.7357 103.168 24.0809C103.52 23.4279 103.696 22.6504 103.696 21.7484C103.696 20.8464 103.52 20.1009 103.168 19.4555V19.4536Z" fill="black"/>
<path d="M109.949 17.7967C110.525 16.6475 111.307 15.7643 112.294 15.1472C113.282 14.5282 114.387 14.2188 115.608 14.2188C116.672 14.2188 117.605 14.4395 118.405 14.8811C119.203 15.3227 119.844 15.8794 120.325 16.5512V14.4565H123.959V29.1403H120.325V26.9927C119.861 27.6815 119.22 28.2514 118.405 28.7025C117.588 29.1535 116.647 29.3781 115.582 29.3781C114.38 29.3781 113.284 29.0591 112.294 28.4232C111.305 27.7872 110.523 26.8908 109.949 25.7321C109.372 24.5753 109.084 23.2449 109.084 21.7427C109.084 20.2406 109.372 18.9422 109.949 17.793V17.7967ZM119.809 19.4801C119.466 18.8347 119.002 18.3402 118.418 17.9949C117.834 17.6496 117.206 17.4778 116.536 17.4778C115.866 17.4778 115.248 17.6458 114.681 17.9817C114.113 18.3176 113.653 18.8082 113.302 19.4518C112.95 20.0972 112.773 20.8614 112.773 21.7446C112.773 22.6278 112.95 23.4015 113.302 24.0639C113.655 24.7263 114.119 25.2339 114.693 25.5887C115.27 25.9416 115.883 26.119 116.536 26.119C117.19 26.119 117.834 25.9473 118.418 25.6019C119.002 25.2566 119.466 24.7621 119.809 24.1167C120.152 23.4713 120.325 22.6995 120.325 21.7975C120.325 20.8954 120.152 20.1236 119.809 19.4782V19.4801Z" fill="black"/>
<path d="M132.596 14.908C133.343 14.4664 134.198 14.2456 135.162 14.2456V18.1425H134.207C133.073 18.1425 132.218 18.4162 131.643 18.9634C131.067 19.5107 130.779 20.4656 130.779 21.8262V29.1407H127.17V14.457H130.779V16.7366C131.243 15.9591 131.849 15.3496 132.596 14.908Z" fill="black"/>
<path d="M146.361 29.1408L141.515 22.8849V29.1408H137.906V9.52783H141.515V20.6864L146.309 14.457H151.001L144.711 21.8263L151.053 29.1408H146.361Z" fill="black"/>
</g>
<path d="M22.1258 34.3109H21.6253C21.4539 34.3109 21.3085 34.1812 21.284 34.0072C20.9809 31.7624 19.8131 28.9925 17.15 26.1655C16.9801 25.9868 16.948 25.7083 17.0796 25.4995C19.4106 21.7741 21.5671 16.1819 20.3947 12.4564C20.0948 11.4994 19.5989 10.7131 18.93 10.1215C18.7953 10.0028 18.8183 9.78454 18.9744 9.69753C20.6473 8.77842 21.7554 6.89908 21.6085 4.77295C21.4309 2.23236 19.4274 0.178998 16.9709 0.0113119C14.0736 -0.184849 11.6554 2.19597 11.6554 5.14945C11.6554 6.66812 12.2936 8.03491 13.3084 8.97617C13.4385 9.09639 13.4124 9.31154 13.2579 9.39538C13.0329 9.51719 12.814 9.65798 12.6013 9.81618C10.1631 11.6576 9.38712 15.5191 9.31366 17.5091C9.27999 18.3982 9.34121 19.2683 9.49579 20.1257C9.80037 21.8421 10.4799 23.5015 11.5452 25.1246C11.8681 25.615 12.2278 26.0817 12.6166 26.5183L14.594 28.7504C16.596 31.0648 17.6719 33.3365 17.8265 35.4215C17.8342 35.499 17.8403 35.5749 17.8433 35.6524C17.9 36.9686 18.9438 38 20.2203 38H22.1839C23.1803 38 23.9854 37.1568 23.9686 36.1207C23.9517 35.1051 23.1069 34.3094 22.1243 34.3094L22.1258 34.3109ZM16.6373 3.68774C17.4163 3.68774 18.0515 4.34266 18.0515 5.14945C18.0515 5.95624 17.4179 6.61117 16.6373 6.61117C15.8567 6.61117 15.2246 5.95624 15.2246 5.14945C15.2246 4.34266 15.8567 3.68774 16.6373 3.68774ZM14.1241 22.4511C13.2211 20.8803 12.8201 19.3078 12.8798 17.6515C12.9441 15.9304 13.6619 13.5859 14.7057 12.7966C14.8894 12.6589 15.1205 12.5292 15.471 12.5292C15.6256 12.5292 15.8031 12.5545 16.0113 12.613C16.5393 12.7649 16.8255 13.0497 16.997 13.597C17.525 15.2707 16.648 19.0025 14.7226 22.4416C14.5894 22.6805 14.2588 22.6853 14.1226 22.4511H14.1241Z" fill="#1769FF"/>
<path d="M10.1755 28.0108C10.1219 27.9349 10.0209 27.9175 9.94437 27.9665C7.04094 29.8538 4.88747 28.7575 3.96303 28.4506C2.79217 28.0599 1.54019 28.6452 1.05195 29.8142L0.1474 31.972C-0.244418 32.9069 0.171889 33.9921 1.07644 34.3971C1.98098 34.8021 3.03093 34.3718 3.42275 33.4385L3.81304 32.5083C3.87732 32.3532 4.03803 32.2662 4.1972 32.2995C6.10119 32.6902 8.88218 33.179 12.1866 30.871C12.2738 30.8109 12.2876 30.6827 12.2172 30.6036C11.905 30.2461 11.5943 29.8759 11.2882 29.4915C10.8964 28.9995 10.526 28.506 10.177 28.0124L10.1755 28.0108Z" fill="#1769FF"/>
<defs>
<clipPath id="clip0_1213_48085">
<rect width="119.44" height="27.7767" fill="white" transform="translate(31.6133 8.36035)"/>
</clipPath>
</defs>
</svg>
